<svg xmlns="http://www.w3.org/2000/svg" xmlns:xlink="http://www.w3.org/1999/xlink" version="1.1" x="0px" y="0px" viewBox="0 0 250 312.5" style="enable-background:new 0 0 250 250;" xml:space="preserve"><g><path d="M48.741,117.576c1.104,0,2-0.896,2-2V87.471h4.02c1.104,0,2-0.896,2-2s-0.896-2-2-2h-6.02c-1.104,0-2,0.896-2,2v30.105   C46.741,116.681,47.637,117.576,48.741,117.576z"/><path d="M202.325,144.471c-1.104,0-2,0.896-2,2v28.105h-4.02c-1.104,0-2,0.896-2,2s0.896,2,2,2h6.02c1.104,0,2-0.896,2-2v-30.105   C204.325,145.366,203.43,144.471,202.325,144.471z"/><path d="M204.325,85.471c0-1.104-0.896-2-2-2h-7.086c-1.104,0-2,0.896-2,2s0.896,2,2,2h5.086v8.035c0,1.104,0.896,2,2,2   s2-0.896,2-2V85.471z"/><path d="M40.714,178.553c1.104,0,2-0.896,2-2V79.45c0-1.111,0.903-2.014,2.014-2.014h10.034c1.104,0,2-0.896,2-2s-0.896-2-2-2   H44.728c-3.316,0-6.014,2.698-6.014,6.014v97.103C38.714,177.657,39.609,178.553,40.714,178.553z"/><path d="M204.325,101.527c0-1.104-0.896-2-2-2s-2,0.896-2,2v1.515c0,1.104,0.896,2,2,2s2-0.896,2-2V101.527z"/><path d="M50.741,174.553v-8.035c0-1.104-0.896-2-2-2s-2,0.896-2,2v10.035c0,1.104,0.896,2,2,2h7.086c1.104,0,2-0.896,2-2   s-0.896-2-2-2H50.741z"/><path d="M46.741,160.497c0,1.104,0.896,2,2,2s2-0.896,2-2v-1.515c0-1.104-0.896-2-2-2s-2,0.896-2,2V160.497z"/><path d="M136.163,190.216h-22.326c-1.104,0-2,0.896-2,2s0.896,2,2,2h22.326c1.104,0,2-0.896,2-2S137.268,190.216,136.163,190.216z"/><path d="M62.801,136.535c1.104,0,2-0.896,2-2V77.668h42.875c1.104,0,2-0.896,2-2s-0.896-2-2-2H64.801v-3.722   c0-6.936,5.625-12.579,12.541-12.579h73.603c1.104,0,2-0.896,2-2s-0.896-2-2-2H77.341c-9.121,0-16.541,7.437-16.541,16.579v64.589   C60.801,135.639,61.696,136.535,62.801,136.535z"/><path d="M187.224,73.967c-1.104,0-2,0.896-2,2v1.515c0,1.104,0.896,2,2,2s2-0.896,2-2v-1.515   C189.224,74.862,188.328,73.967,187.224,73.967z"/><path d="M62.801,144.07c1.104,0,2-0.896,2-2v-1.515c0-1.104-0.896-2-2-2s-2,0.896-2,2v1.515   C60.801,143.175,61.696,144.07,62.801,144.07z"/><path d="M71.516,146.091c-1.104,0-2,0.896-2,2s0.896,2,2,2c16.213,0,29.403-13.229,29.403-29.489v-0.146c0-1.104-0.896-2-2-2   s-2,0.896-2,2v0.146C96.918,134.657,85.523,146.091,71.516,146.091z"/><circle cx="73.931" cy="65.501" r="2.092"/><circle cx="81.124" cy="65.501" r="2.092"/><circle cx="88.318" cy="65.459" r="2.092"/><path d="M223,182.581h-10.647V79.45c0-3.316-2.698-6.014-6.014-6.014h-11.1c-1.104,0-2,0.896-2,2s0.896,2,2,2h11.1   c1.11,0,2.014,0.903,2.014,2.014v103.13H40.714H27c-1.104,0-2,0.896-2,2v5.629c0,6.42,5.222,11.643,11.642,11.643h176.717   c6.419,0,11.642-5.223,11.642-11.643v-5.629C225,183.476,224.104,182.581,223,182.581z M221,190.209   c0,4.214-3.428,7.643-7.642,7.643H36.642c-4.213,0-7.642-3.428-7.642-7.643v-3.629h11.714h169.639H221V190.209z"/><path d="M77.341,164.67h95.342c0.323,0,0.637-0.03,0.955-0.049c0.02,0.001,0.039,0.009,0.058,0.009   c0.068,0,0.135-0.016,0.202-0.023c8.553-0.628,15.325-7.787,15.325-16.517V83.503c0-1.104-0.896-2-2-2s-2,0.896-2,2v44.162   l-1.06-0.852c-0.975-0.784-1.669-1.842-2.006-3.062l-9.961-36.057c-0.583-2.112-1.74-4.007-3.344-5.48l-4.951-4.547h15.295   c1.104,0,2-0.896,2-2s-0.896-2-2-2h-19.651l-3.162-2.904l16.421-13.391c6.858,0.067,12.419,5.678,12.419,12.572   c0,1.104,0.896,2,2,2s2-0.896,2-2c0-8.144-5.893-14.919-13.627-16.305c0.235-1.285-0.043-2.658-0.914-3.752   c-0.776-0.974-1.884-1.583-3.117-1.715c-1.227-0.131-2.434,0.229-3.391,1.011l-18.692,15.243l-1.782-1.636   c-2.563-2.354-6.252-2.961-9.4-1.551l-19.579,8.78c-2.145,0.962-3.745,2.919-4.279,5.235l-3.545,15.361   c-0.237,1.026-0.018,2.103,0.601,2.954c0.288,0.397,0.654,0.718,1.064,0.964l-6.789,5.536c-2.131,1.737-3.991,3.78-5.528,6.073   l-2.988,4.457c-0.492,0.734-0.444,1.703,0.117,2.385c0.389,0.472,0.96,0.729,1.544,0.729c0.26,0,0.523-0.051,0.774-0.156   l5.026-2.111c2.431-1.021,4.702-2.386,6.748-4.055l10.043-8.19l2.839,10.594c0.485,1.812,1.112,3.6,1.863,5.314l2.194,5.013   c0.294,0.672,0.932,1.129,1.662,1.191l0.242,0.021c0.226,0.02,0.45,0.029,0.674,0.029c0.619,0,1.229-0.073,1.82-0.213   c-0.568,4.528,0.072,9.188,1.912,13.39l1.577,3.602c1.544,3.529,4.344,6.244,7.885,7.646l7.462,2.956   c0.979,0.388,1.901,0.912,2.741,1.557l13.484,10.367H77.341c-6.915,0-12.541-5.643-12.541-12.579c0-1.104-0.896-2-2-2s-2,0.896-2,2   C60.801,157.233,68.221,164.67,77.341,164.67z M170.705,52.283c0.159-0.13,0.324-0.141,0.436-0.131   c0.115,0.012,0.279,0.062,0.413,0.229c0.223,0.28,0.18,0.705-0.095,0.929l-31.526,25.708c-0.346-0.276-0.719-0.519-1.109-0.738   L170.705,52.283z M118.34,76.155c0.255-1.104,1.009-2.032,2.018-2.485l19.579-8.781c1.688-0.756,3.673-0.424,5.059,0.848   l1.355,1.244l-12.614,10.286c-0.784,0.102-1.558,0.318-2.3,0.651c-2.119,0.95-3.641,2.705-4.384,4.755l-8.849,7.216   c-0.945,0.771-2.104,1.183-3.306,1.184L118.34,76.155z M108.939,104.292c-1.398,1.14-2.917,2.114-4.532,2.905   c1.136-1.492,2.441-2.842,3.894-4.026l18.6-15.167c0.098,0.328,0.21,0.655,0.351,0.976l0.123,0.28l-5.947,4.85   c-0.012,0.009-0.023,0.019-0.035,0.028L108.939,104.292z M129.876,113.507c-0.67-1.531-1.23-3.127-1.664-4.745l-3.304-12.33   l4.131-3.368l3.924,8.963c1.807,4.129,2.205,8.804,1.12,13.166l-0.219,0.881c-0.621,0.674-1.43,1.12-2.317,1.25L129.876,113.507z    M153.115,145.027l-7.462-2.956c-2.553-1.011-4.575-2.976-5.694-5.532l-1.577-3.603c-1.888-4.312-2.303-9.197-1.17-13.753   l0.405-1.627c0-0.001,0-0.001,0-0.002l0.348-1.397c1.297-5.214,0.822-10.802-1.337-15.735l-5.711-13.046   c-0.411-0.939-0.46-1.939-0.238-2.861c0.016-0.05,0.028-0.1,0.04-0.151c0.335-1.205,1.151-2.256,2.355-2.797   c1.022-0.458,2.164-0.487,3.218-0.082c1.092,0.421,1.956,1.255,2.435,2.348l6.6,15.077c1.341,3.063,3.196,5.827,5.513,8.214   l5.094,5.248c0.77,0.792,2.036,0.811,2.828,0.042c0.792-0.769,0.812-2.036,0.042-2.828l-5.094-5.248   c-1.983-2.043-3.571-4.409-4.719-7.033l-6.6-15.077c-0.006-0.013-0.013-0.026-0.019-0.039l10.881-8.873l12.896,11.842   c1.051,0.965,1.81,2.21,2.194,3.599l9.961,36.057c0.562,2.033,1.722,3.802,3.355,5.115l3.565,2.866v15.294   c0,6.392-4.781,11.674-10.943,12.465l-17.461-13.425C155.685,146.259,154.438,145.552,153.115,145.027z"/></g><text x="0" y="265" fill="#000000" font-size="5px" font-weight="bold" font-family="'Helvetica Neue', Helvetica, Arial-Unicode, Arial, Sans-serif">Created by Symbolon</text><text x="0" y="270" fill="#000000" font-size="5px" font-weight="bold" font-family="'Helvetica Neue', Helvetica, Arial-Unicode, Arial, Sans-serif">from the Noun Project</text></svg>