<?xml version="1.0" encoding="utf-8"?>
<!-- Generator: Adobe Illustrator 19.1.0, SVG Export Plug-In . SVG Version: 6.00 Build 0)  -->
<svg version="1.1" id="Layer_1" xmlns="http://www.w3.org/2000/svg" xmlns:xlink="http://www.w3.org/1999/xlink" x="0px" y="0px"
	 viewBox="-180 272 206 161.3" style="enable-background:new -180 272 206 161.3;" xml:space="preserve">
<g>
	<path d="M-153.5,342.6c1.1,0,2-0.9,2-2v-28.1h4c1.1,0,2-0.9,2-2s-0.9-2-2-2h-6c-1.1,0-2,0.9-2,2v30.1
		C-155.5,341.7-154.6,342.6-153.5,342.6z"/>
	<path d="M0.1,369.5c-1.1,0-2,0.9-2,2v28.1h-4c-1.1,0-2,0.9-2,2s0.9,2,2,2h6c1.1,0,2-0.9,2-2v-30.1C2.1,370.4,1.2,369.5,0.1,369.5z"
		/>
	<path d="M2.1,310.5c0-1.1-0.9-2-2-2H-7c-1.1,0-2,0.9-2,2s0.9,2,2,2h5.1v8c0,1.1,0.9,2,2,2s2-0.9,2-2V310.5z"/>
	<path d="M-161.5,403.6c1.1,0,2-0.9,2-2v-97.1c0-1.1,0.9-2,2-2h10c1.1,0,2-0.9,2-2s-0.9-2-2-2h-10c-3.3,0-6,2.7-6,6v97.1
		C-163.5,402.7-162.6,403.6-161.5,403.6z"/>
	<path d="M2.1,326.5c0-1.1-0.9-2-2-2s-2,0.9-2,2v1.5c0,1.1,0.9,2,2,2s2-0.9,2-2V326.5z"/>
	<path d="M-151.5,399.6v-8c0-1.1-0.9-2-2-2s-2,0.9-2,2v10c0,1.1,0.9,2,2,2h7.1c1.1,0,2-0.9,2-2s-0.9-2-2-2H-151.5z"/>
	<path d="M-155.5,385.5c0,1.1,0.9,2,2,2s2-0.9,2-2V384c0-1.1-0.9-2-2-2s-2,0.9-2,2V385.5z"/>
	<path d="M-66,415.2h-22.3c-1.1,0-2,0.9-2,2s0.9,2,2,2H-66c1.1,0,2-0.9,2-2S-64.9,415.2-66,415.2z"/>
	<path d="M-139.4,361.5c1.1,0,2-0.9,2-2v-56.9h42.9c1.1,0,2-0.9,2-2s-0.9-2-2-2h-42.9v-3.7c0-6.9,5.6-12.6,12.5-12.6h73.6
		c1.1,0,2-0.9,2-2s-0.9-2-2-2h-73.6c-9.1,0-16.5,7.4-16.5,16.6v64.6C-141.4,360.6-140.5,361.5-139.4,361.5z"/>
	<path d="M-15,299c-1.1,0-2,0.9-2,2v1.5c0,1.1,0.9,2,2,2s2-0.9,2-2V301C-13,299.9-13.9,299-15,299z"/>
	<path d="M-139.4,369.1c1.1,0,2-0.9,2-2v-1.5c0-1.1-0.9-2-2-2c-1.1,0-2,0.9-2,2v1.5C-141.4,368.2-140.5,369.1-139.4,369.1z"/>
	<path d="M-130.7,371.1c-1.1,0-2,0.9-2,2s0.9,2,2,2c16.2,0,29.4-13.2,29.4-29.5v-0.1c0-1.1-0.9-2-2-2s-2,0.9-2,2v0.1
		C-105.3,359.7-116.7,371.1-130.7,371.1z"/>
	<circle cx="-128.3" cy="290.5" r="2.1"/>
	<circle cx="-121.1" cy="290.5" r="2.1"/>
	<circle cx="-113.9" cy="290.5" r="2.1"/>
	<path d="M20.8,407.6H10.2V304.5c0-3.3-2.7-6-6-6H-7c-1.1,0-2,0.9-2,2s0.9,2,2,2H4.1c1.1,0,2,0.9,2,2v103.1h-167.6h-13.7
		c-1.1,0-2,0.9-2,2v5.6c0,6.4,5.2,11.6,11.6,11.6H11.2c6.4,0,11.6-5.2,11.6-11.6v-5.6C22.8,408.5,21.9,407.6,20.8,407.6z
		 M18.8,415.2c0,4.2-3.4,7.6-7.6,7.6h-176.7c-4.2,0-7.6-3.4-7.6-7.6v-3.6h11.7H8.2h10.6V415.2z"/>
	<path d="M-124.9,389.7h95.3c0.3,0,0.6,0,1,0c0,0,0,0,0.1,0s0.1,0,0.2,0c8.6-0.6,15.3-7.8,15.3-16.5v-64.7c0-1.1-0.9-2-2-2
		s-2,0.9-2,2v44.2l-1.1-0.9c-1-0.8-1.7-1.8-2-3.1l-10-36.1c-0.6-2.1-1.7-4-3.3-5.5l-5-4.5h15.3c1.1,0,2-0.9,2-2s-0.9-2-2-2h-19.7
		l-3.2-2.9l16.4-13.4c6.9,0.1,12.4,5.7,12.4,12.6c0,1.1,0.9,2,2,2s2-0.9,2-2c0-8.1-5.9-14.9-13.6-16.3c0.2-1.3,0-2.7-0.9-3.8
		c-0.8-1-1.9-1.6-3.1-1.7s-2.4,0.2-3.4,1l-18.7,15.2l-1.8-1.6c-2.6-2.4-6.3-3-9.4-1.6l-19.6,8.8c-2.1,1-3.7,2.9-4.3,5.2l-3.5,15.4
		c-0.2,1,0,2.1,0.6,3c0.3,0.4,0.7,0.7,1.1,1l-6.8,5.5c-2.1,1.7-4,3.8-5.5,6.1l-3,4.5c-0.5,0.7-0.4,1.7,0.1,2.4
		c0.4,0.5,1,0.7,1.5,0.7c0.3,0,0.5-0.1,0.8-0.2l5-2.1c2.4-1,4.7-2.4,6.7-4.1l10-8.2l2.8,10.6c0.5,1.8,1.1,3.6,1.9,5.3l2.2,5
		c0.3,0.7,0.9,1.1,1.7,1.2h0.2c0.2,0,0.4,0,0.7,0c0.6,0,1.2-0.1,1.8-0.2c-0.6,4.5,0.1,9.2,1.9,13.4l1.6,3.6c1.5,3.5,4.3,6.2,7.9,7.6
		l7.5,3c1,0.4,1.9,0.9,2.7,1.6l13.5,10.4h-90.5c-6.9,0-12.5-5.6-12.5-12.6c0-1.1-0.9-2-2-2c-1.1,0-2,0.9-2,2
		C-141.4,382.2-134,389.7-124.9,389.7z M-31.5,277.3c0.2-0.1,0.3-0.1,0.4-0.1c0.1,0,0.3,0.1,0.4,0.2c0.2,0.3,0.2,0.7-0.1,0.9
		L-62.3,304c-0.3-0.3-0.7-0.5-1.1-0.7L-31.5,277.3z M-83.9,301.2c0.3-1.1,1-2,2-2.5l19.6-8.8c1.7-0.8,3.7-0.4,5.1,0.8l1.4,1.2
		l-12.6,10.3c-0.8,0.1-1.6,0.3-2.3,0.7c-2.1,1-3.6,2.7-4.4,4.8l-8.8,7.2c-0.9,0.8-2.1,1.2-3.3,1.2L-83.9,301.2z M-93.3,329.3
		c-1.4,1.1-2.9,2.1-4.5,2.9c1.1-1.5,2.4-2.8,3.9-4l18.6-15.2c0.1,0.3,0.2,0.7,0.4,1l0.1,0.3l-5.9,4.8l0,0L-93.3,329.3z M-72.3,338.5
		c-0.7-1.5-1.2-3.1-1.7-4.7l-3.3-12.3l4.1-3.4l3.9,9c1.8,4.1,2.2,8.8,1.1,13.2l-0.2,0.9c-0.6,0.7-1.4,1.1-2.3,1.3L-72.3,338.5z
		 M-49.1,370l-7.5-3c-2.6-1-4.6-3-5.7-5.5l-1.6-3.6c-1.9-4.3-2.3-9.2-1.2-13.8l0.4-1.6l0,0l0.3-1.4c1.3-5.2,0.8-10.8-1.3-15.7
		l-5.7-13c-0.4-0.9-0.5-1.9-0.2-2.9c0-0.1,0-0.1,0-0.2c0.3-1.2,1.2-2.3,2.4-2.8c1-0.5,2.2-0.5,3.2-0.1c1.1,0.4,2,1.3,2.4,2.3
		l6.6,15.1c1.3,3.1,3.2,5.8,5.5,8.2l5.1,5.2c0.8,0.8,2,0.8,2.8,0c0.8-0.8,0.8-2,0-2.8l-5.1-5.2c-2-2-3.6-4.4-4.7-7l-6.6-15.1l0,0
		l10.9-8.9l12.9,11.8c1.1,1,1.8,2.2,2.2,3.6l10,36.1c0.6,2,1.7,3.8,3.4,5.1l3.6,2.9V373c0,6.4-4.8,11.7-10.9,12.5l-17.5-13.4
		C-46.5,371.3-47.8,370.6-49.1,370z"/>
</g>
</svg>
