<?xml version="1.0" encoding="utf-8"?>
<!-- Generator: Adobe Illustrator 19.1.0, SVG Export Plug-In . SVG Version: 6.00 Build 0)  -->
<svg version="1.1" id="Layer_1" xmlns="http://www.w3.org/2000/svg" xmlns:xlink="http://www.w3.org/1999/xlink" x="0px" y="0px"
	 viewBox="-180 240.5 250 250" style="enable-background:new -180 240.5 250 250;" xml:space="preserve">
<g>
	<path d="M-131.3,358.1c1.1,0,2-0.9,2-2V328h4c1.1,0,2-0.9,2-2s-0.9-2-2-2h-6c-1.1,0-2,0.9-2,2v30.1
		C-133.3,357.2-132.4,358.1-131.3,358.1z"/>
	<path d="M22.3,385c-1.1,0-2,0.9-2,2v28.1h-4c-1.1,0-2,0.9-2,2s0.9,2,2,2h6c1.1,0,2-0.9,2-2V387C24.3,385.9,23.4,385,22.3,385z"/>
	<path d="M24.3,326c0-1.1-0.9-2-2-2h-7.1c-1.1,0-2,0.9-2,2s0.9,2,2,2h5.1v8c0,1.1,0.9,2,2,2s2-0.9,2-2V326z"/>
	<path d="M-139.3,419.1c1.1,0,2-0.9,2-2V320c0-1.1,0.9-2,2-2h10c1.1,0,2-0.9,2-2c0-1.1-0.9-2-2-2h-10c-3.3,0-6,2.7-6,6v97.1
		C-141.3,418.2-140.4,419.1-139.3,419.1z"/>
	<path d="M24.3,342c0-1.1-0.9-2-2-2s-2,0.9-2,2v1.5c0,1.1,0.9,2,2,2s2-0.9,2-2V342z"/>
	<path d="M-129.3,415.1v-8c0-1.1-0.9-2-2-2s-2,0.9-2,2v10c0,1.1,0.9,2,2,2h7.1c1.1,0,2-0.9,2-2s-0.9-2-2-2H-129.3z"/>
	<path d="M-133.3,401c0,1.1,0.9,2,2,2s2-0.9,2-2v-1.5c0-1.1-0.9-2-2-2s-2,0.9-2,2V401z"/>
	<path d="M-43.8,430.7h-22.3c-1.1,0-2,0.9-2,2s0.9,2,2,2h22.3c1.1,0,2-0.9,2-2S-42.7,430.7-43.8,430.7z"/>
	<path d="M-117.2,377c1.1,0,2-0.9,2-2v-56.9h42.9c1.1,0,2-0.9,2-2s-0.9-2-2-2h-42.9v-3.7c0-6.9,5.6-12.6,12.5-12.6h73.6
		c1.1,0,2-0.9,2-2s-0.9-2-2-2h-73.6c-9.1,0-16.5,7.4-16.5,16.6V375C-119.2,376.1-118.3,377-117.2,377z"/>
	<path d="M7.2,314.5c-1.1,0-2,0.9-2,2v1.5c0,1.1,0.9,2,2,2s2-0.9,2-2v-1.5C9.2,315.4,8.3,314.5,7.2,314.5z"/>
	<path d="M-117.2,384.6c1.1,0,2-0.9,2-2v-1.5c0-1.1-0.9-2-2-2s-2,0.9-2,2v1.5C-119.2,383.7-118.3,384.6-117.2,384.6z"/>
	<path d="M-108.5,386.6c-1.1,0-2,0.9-2,2s0.9,2,2,2c16.2,0,29.4-13.2,29.4-29.5V361c0-1.1-0.9-2-2-2s-2,0.9-2,2v0.1
		C-83.1,375.2-94.5,386.6-108.5,386.6z"/>
	<circle cx="-106.1" cy="306" r="2.1"/>
	<circle cx="-98.9" cy="306" r="2.1"/>
	<circle cx="-91.7" cy="306" r="2.1"/>
	<path d="M43,423.1H32.4V320c0-3.3-2.7-6-6-6H15.2c-1.1,0-2,0.9-2,2c0,1.1,0.9,2,2,2h11.1c1.1,0,2,0.9,2,2v103.1h-167.6H-153
		c-1.1,0-2,0.9-2,2v5.6c0,6.4,5.2,11.6,11.6,11.6H33.4c6.4,0,11.6-5.2,11.6-11.6v-5.6C45,424,44.1,423.1,43,423.1z M41,430.7
		c0,4.2-3.4,7.6-7.6,7.6h-176.7c-4.2,0-7.6-3.4-7.6-7.6v-3.6h11.7H30.4H41V430.7z"/>
	<path d="M-102.7,405.2h95.3c0.3,0,0.6,0,1,0c0,0,0,0,0.1,0c0.1,0,0.1,0,0.2,0c8.6-0.6,15.3-7.8,15.3-16.5V324c0-1.1-0.9-2-2-2
		s-2,0.9-2,2v44.2l-1.1-0.9c-1-0.8-1.7-1.8-2-3.1l-10-36.1c-0.6-2.1-1.7-4-3.3-5.5l-5-4.5h15.3c1.1,0,2-0.9,2-2s-0.9-2-2-2h-19.7
		l-3.2-2.9l16.4-13.4c6.9,0.1,12.4,5.7,12.4,12.6c0,1.1,0.9,2,2,2s2-0.9,2-2c0-8.1-5.9-14.9-13.6-16.3c0.2-1.3,0-2.7-0.9-3.8
		c-0.8-1-1.9-1.6-3.1-1.7c-1.2-0.1-2.4,0.2-3.4,1l-18.7,15.2l-1.8-1.6c-2.6-2.4-6.3-3-9.4-1.6l-19.6,8.8c-2.1,1-3.7,2.9-4.3,5.2
		l-3.5,15.4c-0.2,1,0,2.1,0.6,3c0.3,0.4,0.7,0.7,1.1,1l-6.8,5.5c-2.1,1.7-4,3.8-5.5,6.1l-3,4.5c-0.5,0.7-0.4,1.7,0.1,2.4
		c0.4,0.5,1,0.7,1.5,0.7c0.3,0,0.5-0.1,0.8-0.2l5-2.1c2.4-1,4.7-2.4,6.7-4.1l10-8.2l2.8,10.6c0.5,1.8,1.1,3.6,1.9,5.3l2.2,5
		c0.3,0.7,0.9,1.1,1.7,1.2l0.2,0c0.2,0,0.4,0,0.7,0c0.6,0,1.2-0.1,1.8-0.2c-0.6,4.5,0.1,9.2,1.9,13.4l1.6,3.6
		c1.5,3.5,4.3,6.2,7.9,7.6l7.5,3c1,0.4,1.9,0.9,2.7,1.6l13.5,10.4h-90.5c-6.9,0-12.5-5.6-12.5-12.6c0-1.1-0.9-2-2-2s-2,0.9-2,2
		C-119.2,397.7-111.8,405.2-102.7,405.2z M-9.3,292.8c0.2-0.1,0.3-0.1,0.4-0.1c0.1,0,0.3,0.1,0.4,0.2c0.2,0.3,0.2,0.7-0.1,0.9
		l-31.5,25.7c-0.3-0.3-0.7-0.5-1.1-0.7L-9.3,292.8z M-61.7,316.7c0.3-1.1,1-2,2-2.5l19.6-8.8c1.7-0.8,3.7-0.4,5.1,0.8l1.4,1.2
		l-12.6,10.3c-0.8,0.1-1.6,0.3-2.3,0.7c-2.1,1-3.6,2.7-4.4,4.8l-8.8,7.2c-0.9,0.8-2.1,1.2-3.3,1.2L-61.7,316.7z M-71.1,344.8
		c-1.4,1.1-2.9,2.1-4.5,2.9c1.1-1.5,2.4-2.8,3.9-4l18.6-15.2c0.1,0.3,0.2,0.7,0.4,1l0.1,0.3l-5.9,4.8c0,0,0,0,0,0L-71.1,344.8z
		 M-50.1,354c-0.7-1.5-1.2-3.1-1.7-4.7l-3.3-12.3l4.1-3.4l3.9,9c1.8,4.1,2.2,8.8,1.1,13.2l-0.2,0.9c-0.6,0.7-1.4,1.1-2.3,1.3
		L-50.1,354z M-26.9,385.5l-7.5-3c-2.6-1-4.6-3-5.7-5.5l-1.6-3.6c-1.9-4.3-2.3-9.2-1.2-13.8l0.4-1.6c0,0,0,0,0,0l0.3-1.4
		c1.3-5.2,0.8-10.8-1.3-15.7l-5.7-13c-0.4-0.9-0.5-1.9-0.2-2.9c0-0.1,0-0.1,0-0.2c0.3-1.2,1.2-2.3,2.4-2.8c1-0.5,2.2-0.5,3.2-0.1
		c1.1,0.4,2,1.3,2.4,2.3l6.6,15.1c1.3,3.1,3.2,5.8,5.5,8.2l5.1,5.2c0.8,0.8,2,0.8,2.8,0s0.8-2,0-2.8l-5.1-5.2c-2-2-3.6-4.4-4.7-7
		l-6.6-15.1c0,0,0,0,0,0l10.9-8.9l12.9,11.8c1.1,1,1.8,2.2,2.2,3.6l10,36.1c0.6,2,1.7,3.8,3.4,5.1l3.6,2.9v15.3
		c0,6.4-4.8,11.7-10.9,12.5l-17.5-13.4C-24.3,386.8-25.6,386.1-26.9,385.5z"/>
</g>
</svg>
