<?xml version="1.0" encoding="utf-8"?>
<!-- Generator: Adobe Illustrator 19.1.0, SVG Export Plug-In . SVG Version: 6.00 Build 0)  -->
<svg version="1.1" id="Layer_1" xmlns="http://www.w3.org/2000/svg" xmlns:xlink="http://www.w3.org/1999/xlink" x="0px" y="0px"
	 viewBox="-241 317 128 95.5" style="enable-background:new -241 317 128 95.5;" xml:space="preserve">
<title>Capitalism, corruption, fish, eat, business, investment, situation</title>
<g>
	<path d="M-159.3,382.3c-6.9-1.6-23.3-12.2-23.9-18.4c13.7-3.9,18.5-10.5,20.2-14.1c0.9-1.9,0.2-4.1-1.6-5.2
		c-6.9-4.2-14.8-6.3-22.8-6.2c-7-5.3-17.9-5.6-22.1-2c-1,0.9-1.5,2.1-1.4,3.5c0.3,2,1.3,3.9,2.9,5.2c-9.9,6.4-16.5,15.9-18.3,23.1
		c-1.5-2.8-4.2-4.7-7.3-5.2c-1.9-0.3-3.8,0.5-4.8,2.2c-0.6,1-1.1,3.3,1.3,6.6c-2.4,3.3-1.9,5.5-1.3,6.6c0.9,1.5,2.5,2.3,4.2,2.2
		c0.2,0,0.4,0,0.6,0c3-0.5,5.7-2.3,7.2-5c1.7,8.6,8.9,19.1,19.9,24.5c1.8,0.9,3.7,1.6,5.6,2.2c-2.4,1.9-2.8,3.7-2.8,4.7
		c0,1.1,0.6,2.2,1.5,2.7c0.5,0.2,1,0.3,1.5,0.3c3.7,0,10.7-3.4,13.4-6.4c2.2-0.2,4.5-0.5,6.7-1.1c0.1,0,0.2,0,0.3-0.1
		c2.9-0.7,5.7-1.6,8.4-2.8c7.9-3.4,14.3-12.1,14-15.6C-157.9,383.2-158.5,382.5-159.3,382.3z M-209,339.8c-0.1-0.7,0.2-1.4,0.7-1.8
		c2.9-2.4,11.2-2.8,17.5,0.7c-5.4,0.7-10.6,2.4-15.3,5.2c-0.1,0-0.1,0.1-0.2,0.1C-207.7,343.1-208.7,341.5-209,339.8z M-233.9,378.6
		c-1.1,0.2-2.3-0.2-2.9-1.1c-0.6-1.2,0-3,1.6-5c0.3-0.4,0.3-0.9,0-1.3c-1.7-2-2.2-3.8-1.6-5c0.5-0.8,1.5-1.2,2.4-1.1
		c0.1,0,0.3,0,0.5,0c2.3,0.2,5.4,2.1,7,6.8C-228.5,376.5-231.6,378.4-233.9,378.6z M-201.3,407.9c-0.3-0.2-0.4-0.6-0.4-1
		c0-0.6,0.3-2.3,3.4-4c2.5,0.5,5.1,0.8,7.7,0.8c0.1,0,0.1,0,0.2,0C-194.1,406.5-200.1,408.5-201.3,407.9L-201.3,407.9z
		 M-172.6,397.8c-2.6,1.1-5.3,2-8,2.7c-1.6-0.6-6.2-3.3-7.2-5.1c-0.3-0.5-0.9-0.6-1.4-0.4c-0.5,0.3-0.6,0.8-0.4,1.3
		c0.9,1.6,3.6,3.5,5.8,4.8c-7.4,1.4-15.1,0.4-21.9-2.8c-11.9-5.8-19.2-18.3-19.2-26.5c0-7.2,8-19.4,19.8-26.2
		c5.2-3,11.1-4.8,17.1-5.2c0.2,0,0.3,0,0.5,0c0.4,0,0.8,0,1.3,0c7.3,0.1,14.4,2.2,20.6,6c0.9,0.5,1.3,1.6,0.8,2.6
		c-1.6,3.4-6.2,9.5-19.7,13.2c-0.4,0.1-0.7,0.5-0.7,0.9c-0.7,7.7,18,19.4,25.4,21.1C-159.6,385.8-164.6,394.4-172.6,397.8z"/>
	<path d="M-184.7,348.5c2.5-0.1,4.9-1.5,5.4-3.3c0.3-1-0.2-2-1.1-2.4c-0.5-0.3-1.1-0.1-1.4,0.4c-0.3,0.5-0.1,1.1,0.4,1.4
		c0,0,0,0,0,0c0.2,0.1,0.2,0.1,0.1,0.2c-0.2,0.6-1.5,1.8-3.5,1.8c-0.6,0-1,0.5-1,1C-185.7,348.1-185.2,348.6-184.7,348.5
		L-184.7,348.5z"/>
	<path d="M-198.5,347.2c0.2-0.5,0-1.1-0.5-1.3c-0.5-0.2-1.1,0-1.3,0.5l0,0c-2.1,4.9-3.2,10.2-3.1,15.6c-4,0.4-10,3-10,7.2
		c0,4.3,8,7.6,12.2,8c1.8,6,4.7,11.4,8.4,14.9c0.4,0.4,1,0.4,1.4,0c0.4-0.4,0.4-1,0-1.4c0,0,0,0,0,0
		C-200.9,381.8-204.4,359.9-198.5,347.2z M-211.4,369.1c0-2.5,4.7-4.8,8-5.1c0.1,3.7,0.6,7.4,1.5,11
		C-205.6,374.4-211.4,371.4-211.4,369.1z"/>
	<path d="M-124.7,353.4c-2.6-1.1-5.4-1.8-8.3-2c-2-2.5-5.3-3.7-8.5-2.9c-1.8,0.5-3.1,1.6-3.3,3c-0.1,0.6,0,1.2,0.3,1.7
		c-1.9,0.7-3.8,1.6-5.5,2.8c-2.2,1.4-4.1,3.2-5.5,5.4c-1-1.7-2.7-2.9-4.7-3.2c-1.3-0.2-2.7,0.4-3.4,1.5c-0.4,0.7-0.7,2.1,0.7,4.2
		c-1.4,2.1-1.1,3.5-0.7,4.2c0.6,1,1.7,1.6,2.9,1.6c0.1,0,0.3,0,0.4,0c1.8-0.3,3.4-1.3,4.5-2.9c1.5,3.1,5.2,6.3,9.7,8.1
		c1.4,0.5,2.8,0.9,4.3,1.1c-0.4,0.5-0.6,1.1-0.6,1.7c0,0.7,0.4,1.4,1,1.7c0.4,0.2,0.8,0.2,1.3,0.2c2.1,0,5.7-1.2,7.5-3.6
		c3-0.4,6-1.2,8.7-2.4c1.9-0.9,8.9-5.2,8.8-10.5C-115.1,359.3-118.3,356.1-124.7,353.4z M-142.8,351.7c0.1-0.4,0.7-1,1.8-1.3
		c1.7-0.4,3.5-0.1,4.9,0.9c-2.2,0.1-4.3,0.5-6.4,1.1C-142.7,352.2-142.8,351.9-142.8,351.7L-142.8,351.7z M-160.3,367.5
		c-0.5,0.1-1.1-0.1-1.4-0.5c-0.2-0.4-0.1-1.4,1-2.7c0.3-0.4,0.3-0.9,0-1.3c-1.1-1.3-1.2-2.2-1-2.7c0.3-0.4,0.7-0.6,1.1-0.5
		c0.1,0,0.2,0,0.3,0c1.3,0.1,3,1.2,3.9,3.8C-157.3,366.4-159.1,367.4-160.3,367.5z M-140.3,377.5c0-0.2,0.3-0.8,1.3-1.4
		c0.7,0,1.3,0.1,2.1,0.1c0.4,0,0.8,0,1.2,0C-137.1,377.1-138.6,377.5-140.3,377.5z M-124.6,371.7c-7.6,3.5-16.7,2.8-20.6,1.3
		c-5.5-2.2-9.1-6.4-9.1-8.9c0-1.4,1.7-4.1,5.5-6.6c4.1-2.7,9-4.2,13.9-4.2c0.4,0,0.9,0,1.4,0h0.1c2.8,0.2,5.5,0.8,8,1.9
		c5.5,2.3,8.5,5,8.5,7.8C-116.9,367.3-123.4,371.1-124.6,371.7z"/>
	<path d="M-125.1,356.8c-0.5-0.3-1.1-0.1-1.4,0.4c-0.2,0.3-0.2,0.7,0,1c-0.3,0.2-0.6,0.3-0.9,0.3c-0.6,0-1,0.5-1,1c0,0.6,0.5,1,1,1
		h0c1.3,0,2.5-0.7,3-1.9C-124.1,357.8-124.4,357.1-125.1,356.8z"/>
	<path d="M-133.2,356.5c0.3-0.5,0.1-1.1-0.4-1.4c-0.5-0.3-1.1-0.1-1.4,0.4c-2.8,4.7-2.1,12.3,1.5,15.9c0.4,0.4,1,0.3,1.4-0.1
		c0.3-0.4,0.4-1,0-1.3C-134.8,367-135.4,360.4-133.2,356.5z"/>
	<path d="M-154.4,330.5c0.2,0,0.4,0,0.7,0c1.9-0.1,3.6-1.2,4.5-2.9c0.3-0.6,0.5-1.3,0.5-2c0.2-3.1-0.9-4.7-1.9-5.4
		c-1.8-1.2-4-1.4-5.9-0.6l0,0c-1.6,0.8-2.9,2.2-3.4,3.9c-0.5,1.8,0,3.7,1.3,5C-157.6,329.8-156,330.5-154.4,330.5z M-158,324.2
		c0.4-1.1,1.2-2.1,2.2-2.7c1.3-0.6,2.8-0.5,4,0.3c1.1,0.9,1.2,2.5,1.1,3.7c0,0.4-0.1,0.8-0.3,1.2c-0.6,1.1-1.7,1.7-3,1.8
		c-1.2,0.2-2.4-0.2-3.2-1.1C-157.9,326.5-158.3,325.3-158,324.2z"/>
	<path d="M-157.9,340.4c-0.9,0.5-1.4,1.4-1.5,2.4c-0.1,1.4,0.4,2.7,1.5,3.6c0.7,0.6,1.5,0.9,2.4,0.8c0.2,0,0.4,0,0.7-0.1
		c1.1-0.2,2-0.7,2.7-1.5c1.4-1.7,1.2-4.1-0.4-5.5c0,0,0,0,0,0C-154.6,338.5-157,339.9-157.9,340.4z M-153.3,343c0,0.5-0.1,1-0.5,1.4
		c-0.4,0.4-0.9,0.7-1.5,0.8c-0.5,0.1-1,0-1.4-0.3c-0.5-0.5-0.8-1.2-0.8-1.9c0-0.4,0.2-0.7,0.5-0.9c1.7-1,2.5-0.9,3-0.4
		C-153.5,342-153.3,342.5-153.3,343z"/>
</g>
</svg>
