<svg xmlns="http://www.w3.org/2000/svg" viewBox="0 0 128 160" x="0px" y="0px"><title>Capitalism, corruption, fish, eat, business, investment, situation</title><g><path d="M81.695,81.709c-6.873-1.553-23.3-12.16-23.926-18.351,13.707-3.928,18.543-10.491,20.21-14.092A4.013,4.013,0,0,0,76.336,44.1a42.372,42.372,0,0,0-22.775-6.173c-6.952-5.335-17.893-5.608-22.125-2.034A4.075,4.075,0,0,0,30,39.348a7.867,7.867,0,0,0,2.94,5.178c-9.908,6.365-16.536,15.906-18.316,23.109A10.054,10.054,0,0,0,7.3,62.452a4.737,4.737,0,0,0-4.827,2.174c-.562,1.049-1.087,3.253,1.348,6.569-2.438,3.324-1.91,5.538-1.344,6.593a4.6,4.6,0,0,0,4.213,2.224q.317,0,.644-.032a9.961,9.961,0,0,0,7.2-4.99c1.706,8.58,8.887,19.12,19.935,24.535a35.414,35.414,0,0,0,5.613,2.18c-2.391,1.865-2.776,3.685-2.759,4.713a3.056,3.056,0,0,0,1.521,2.717,3.346,3.346,0,0,0,1.482.282c3.686,0,10.734-3.438,13.445-6.4a44.789,44.789,0,0,0,6.659-1.067,1.007,1.007,0,0,0,.321-.078,54.035,54.035,0,0,0,8.4-2.807c7.9-3.368,14.3-12.115,13.985-15.616A1.849,1.849,0,0,0,81.695,81.709ZM32,39.224a2.067,2.067,0,0,1,.728-1.8c2.892-2.444,11.227-2.777,17.541.732a40.114,40.114,0,0,0-15.335,5.152c-.063.036-.122.076-.185.113A6.3,6.3,0,0,1,32,39.224ZM7.141,77.989a2.826,2.826,0,0,1-2.9-1.145c-.621-1.16-.03-2.99,1.622-5.017a1,1,0,0,0,0-1.264C4.211,68.54,3.618,66.72,4.233,65.57A2.62,2.62,0,0,1,6.65,64.421c.149,0,.3.008.455.022,2.274.219,5.432,2.132,6.975,6.79C12.544,75.867,9.4,77.771,7.141,77.989Zm32.6,29.359a1.124,1.124,0,0,1-.417-.964c-.011-.631.313-2.26,3.38-4.024a37.166,37.166,0,0,0,7.749.813c.056,0,.112,0,.167,0C46.931,105.914,40.9,107.933,39.736,107.348ZM68.363,97.229a52.092,52.092,0,0,1-8.01,2.684c-1.562-.581-6.213-3.271-7.188-5.076a1,1,0,0,0-1.76.949c.888,1.645,3.59,3.536,5.81,4.79A35.349,35.349,0,0,1,35.346,97.73C23.477,91.912,16.13,79.446,16.13,71.233c0-7.169,7.955-19.4,19.8-26.192A38.163,38.163,0,0,1,53,39.875a1,1,0,0,0,.476-.023c.42-.016.842-.026,1.269-.026a40.336,40.336,0,0,1,20.581,6,2.047,2.047,0,0,1,.84,2.6C74.613,51.776,70,57.947,56.506,61.635a1,1,0,0,0-.732.868c-.748,7.7,17.963,19.388,25.376,21.133C81.434,85.207,76.4,93.8,68.363,97.229Z"/><path d="M56.324,47.943c2.513-.05,4.93-1.541,5.389-3.323a2.116,2.116,0,0,0-1.081-2.446,1,1,0,1,0-1,1.732c.174.1.165.132.143.216-.153.6-1.525,1.782-3.492,1.821a1,1,0,0,0,.021,2Z"/><path d="M42.531,46.583a1,1,0,1,0-1.812-.848,38.007,38.007,0,0,0-3.136,15.6c-3.971.382-10.02,3.027-10.02,7.156,0,4.268,8.041,7.588,12.151,8,1.792,6.032,4.661,11.385,8.424,14.909a1,1,0,1,0,1.367-1.459C40.12,81.152,36.6,59.27,42.531,46.583ZM29.563,68.5c0-2.535,4.661-4.78,8.043-5.15A52.838,52.838,0,0,0,39.146,74.4C35.367,73.763,29.563,70.847,29.563,68.5Z"/><path d="M116.27,52.757a26.237,26.237,0,0,0-8.277-2.033,8.453,8.453,0,0,0-8.5-2.917c-1.823.49-3.087,1.621-3.3,2.952a2.522,2.522,0,0,0,.319,1.658,27.757,27.757,0,0,0-5.5,2.77,17.614,17.614,0,0,0-5.469,5.384,6.546,6.546,0,0,0-4.7-3.213A3.312,3.312,0,0,0,77.486,58.9c-.376.7-.738,2.141.7,4.233-1.441,2.1-1.076,3.54-.7,4.247a3.212,3.212,0,0,0,2.936,1.573c.142,0,.287-.007.434-.021a6.422,6.422,0,0,0,4.453-2.857c1.471,3.1,5.206,6.328,9.7,8.115a20.3,20.3,0,0,0,4.326,1.076,2.832,2.832,0,0,0-.6,1.708,1.927,1.927,0,0,0,1,1.724,2.968,2.968,0,0,0,1.27.218c2.125,0,5.744-1.157,7.483-3.586a30.274,30.274,0,0,0,8.72-2.441c1.876-.859,8.866-5.159,8.788-10.508C125.946,58.7,122.672,55.466,116.27,52.757Zm-18.1-1.685c.068-.435.724-1.033,1.841-1.334a6.112,6.112,0,0,1,4.926.935,27.053,27.053,0,0,0-6.41,1.07A.822.822,0,0,1,98.167,51.072ZM80.668,66.94a1.4,1.4,0,0,1-1.416-.5c-.233-.436-.1-1.367.96-2.671a1,1,0,0,0,0-1.264c-1.061-1.3-1.192-2.226-.962-2.656a1.242,1.242,0,0,1,1.146-.506c.082,0,.165,0,.25.012,1.267.122,3.027,1.2,3.933,3.805C83.678,65.751,81.928,66.819,80.668,66.94Zm20.068,9.994c-.005-.227.263-.785,1.322-1.387.666.041,1.348.069,2.057.069.4,0,.8-.013,1.209-.027A8.837,8.837,0,0,1,100.736,76.934Zm15.643-5.865c-7.626,3.491-16.652,2.839-20.626,1.261-5.456-2.168-9.121-6.362-9.121-8.919,0-1.408,1.716-4.061,5.483-6.557a26.028,26.028,0,0,1,13.927-4.208c.444,0,.9.018,1.354.044l.053,0a24.172,24.172,0,0,1,8.041,1.9c5.527,2.338,8.469,5.039,8.509,7.81C124.062,66.653,117.645,70.49,116.379,71.069Z"/><path d="M115.937,56.18a1,1,0,0,0-1.363,1.372,1.7,1.7,0,0,1-.92.291,1,1,0,0,0,.021,2h.02a3.125,3.125,0,0,0,2.992-1.936A1.508,1.508,0,0,0,115.937,56.18Z"/><path d="M107.838,55.916a1,1,0,0,0-1.721-1.02c-2.781,4.688-2.055,12.271,1.524,15.909a1,1,0,0,0,1.425-1.4C106.161,66.448,105.552,59.769,107.838,55.916Z"/><path d="M86.636,29.886c.218,0,.437-.011.659-.033a5.686,5.686,0,0,0,4.54-2.868,4.93,4.93,0,0,0,.52-1.955c.242-3.082-.9-4.651-1.905-5.425a6.307,6.307,0,0,0-5.916-.576h0a6.687,6.687,0,0,0-3.425,3.936A5.213,5.213,0,0,0,82.377,28,5.438,5.438,0,0,0,86.636,29.886Zm-3.621-6.315a4.939,4.939,0,0,1,2.173-2.653,4.423,4.423,0,0,1,4.04.27c1.108.856,1.228,2.477,1.133,3.685a2.991,2.991,0,0,1-.294,1.176A3.691,3.691,0,0,1,87.1,27.862a3.568,3.568,0,0,1-3.172-1.128A3.3,3.3,0,0,1,83.015,23.571Z"/><path d="M83.075,39.824a3,3,0,0,0-1.494,2.41,4.418,4.418,0,0,0,1.466,3.615,3.665,3.665,0,0,0,2.39.839,4.367,4.367,0,0,0,.66-.052,4.507,4.507,0,0,0,2.716-1.5,3.936,3.936,0,0,0-.451-5.549C86.387,37.912,83.981,39.3,83.075,39.824Zm4.669,2.611a1.922,1.922,0,0,1-.455,1.411,2.512,2.512,0,0,1-1.5.813,1.812,1.812,0,0,1-1.447-.335,2.431,2.431,0,0,1-.769-1.909.993.993,0,0,1,.5-.858c1.739-1,2.455-.9,2.994-.441A1.919,1.919,0,0,1,87.744,42.435Z"/></g></svg>