<svg xmlns="http://www.w3.org/2000/svg" xmlns:xlink="http://www.w3.org/1999/xlink" xml:space="preserve" version="1.1" style="shape-rendering:geometricPrecision;text-rendering:geometricPrecision;image-rendering:optimizeQuality;" viewBox="0 0 60000 75000" x="0px" y="0px" fill-rule="evenodd" clip-rule="evenodd"><defs><style type="text/css">
   
    .fil0 {fill:black;fill-rule:nonzero}
   
  </style></defs><g><path class="fil0" d="M39196 58438c131,173 104,424 -61,561 -165,137 -405,109 -537,-64 -702,-923 -1547,-1241 -2391,-1558 -1358,-511 -2717,-1021 -3688,-3615 -625,-1669 -931,-3140 -938,-4561 -7,-1425 286,-2786 859,-4236 1383,-3502 2693,-4336 5150,-5902 450,-287 938,-598 1431,-927 1459,-974 2937,-2138 4116,-3920 1181,-1785 2072,-4204 2365,-7698 18,-220 204,-383 414,-364 211,19 366,213 348,433 -306,3648 -1249,6192 -2500,8083 -1253,1893 -2805,3118 -4334,4139 -551,367 -1015,663 -1443,936 -2319,1478 -3555,2265 -4842,5524 -535,1353 -809,2617 -802,3930 7,1316 296,2694 887,4273 845,2258 2039,2707 3234,3156 948,356 1896,713 2732,1811zm165 -29125c-100,-194 -30,-436 155,-541 186,-104 417,-32 517,163l1061 2062c100,194 30,436 -155,541 -186,104 -417,32 -517,-163l-1061 -2062zm-612 3276c-211,-8 -375,-192 -368,-413 7,-220 184,-392 395,-384l1611 65c211,8 375,192 368,413 -7,220 -184,392 -395,384l-1611 -65zm3079 -3615c36,-217 234,-363 442,-325 208,38 347,245 311,463l-308 1843c-36,217 -234,363 -442,325 -208,-38 -347,-245 -311,-463l308 -1843zm-14733 -9296c-135,-169 -112,-420 49,-561 162,-141 402,-118 537,52l1434 1799c135,169 112,420 -49,561 -162,141 -402,118 -537,-52l-1434 -1799zm26 3339c-208,35 -404,-112 -438,-330 -34,-217 107,-422 315,-458l1591 -274c208,-35 404,112 438,330 34,217 -107,422 -315,458l-1591 274zm2327 -4187c-6,-220 160,-403 371,-409 211,-6 386,167 392,388l51 1870c6,220 -160,403 -371,409 -211,6 -386,-167 -392,-388l-51 -1870zm20784 18174c99,194 29,436 -157,539 -186,104 -417,30 -516,-164l-1056 -2065c-99,-194 -29,-436 157,-539 186,-104 417,-30 516,164l1056 2065zm-2971 -489c-110,188 -345,248 -525,133 -180,-115 -237,-360 -127,-548l840 -1438c110,-188 345,-248 525,-133 180,115 237,360 127,548l-840 1438zm4241 -1827c193,88 282,323 197,525 -84,202 -309,294 -502,206l-1639 -752c-193,-88 -282,-323 -197,-525 84,-202 309,-294 502,-206l1639 752zm-16541 -14698c-100,-194 -30,-436 155,-541 186,-104 417,-32 517,163l1061 2062c100,194 30,436 -155,541 -186,104 -417,32 -517,-163l-1061 -2062zm-612 3276c-211,-8 -375,-192 -368,-413 7,-220 184,-392 395,-384l1611 65c211,8 375,192 368,413 -7,220 -184,392 -395,384l-1611 -65zm3079 -3615c36,-217 234,-363 443,-325 208,38 347,245 311,463l-308 1843c-36,217 -234,363 -442,325 -208,-38 -347,-245 -311,-463l308 -1843zm2788 -9215c-100,-194 -30,-436 155,-541 186,-104 417,-32 517,163l1061 2062c100,194 30,436 -155,541 -186,104 -417,32 -517,-163l-1061 -2062zm-612 3276c-211,-8 -375,-192 -368,-413 7,-220 184,-392 395,-384l1611 65c211,8 375,192 368,413 -7,220 -184,392 -395,384l-1611 -65zm3079 -3615c36,-217 234,-363 443,-325 208,38 347,245 311,463l-308 1843c-36,217 -234,363 -443,325 -208,-38 -347,-245 -311,-463l308 -1843zm-23898 1372c-178,-117 -232,-364 -120,-550 112,-186 348,-242 526,-125l1895 1248c178,117 232,364 120,550 -112,186 -348,242 -526,125l-1895 -1248zm1011 3167c-187,101 -418,24 -514,-172 -97,-196 -23,-437 164,-538l1433 -774c187,-101 418,-24 514,172 97,196 23,437 -164,538l-1433 774zm976 -4734c-70,-208 34,-436 233,-509 199,-73 417,36 487,244l601 1762c70,208 -34,436 -233,509 -199,73 -417,-36 -487,-244l-601 -1762zm26037 11909c40,-217 241,-358 448,-316 207,42 342,252 302,469l-571 3030c-40,217 -241,358 -448,316 -207,-42 -342,-252 -302,-469l571 -3030zm2568 3186c199,-72 417,37 486,245 69,208 -36,435 -235,508l-2007 736c-199,72 -417,-37 -486,-245 -69,-208 36,-435 235,-508l2007 -736zm-490 2707c211,16 368,208 353,428 -16,220 -199,385 -410,369l-1999 -164c-211,-16 -368,-208 -353,-428 16,-220 199,-385 410,-369l1999 164zm-6562 -2131c-146,-159 -141,-411 10,-564 152,-153 394,-148 540,11l1641 1774c146,159 141,411 -10,564 -152,153 -394,148 -540,-11l-1641 -1774zm1329 -2588c-96,-196 -21,-436 166,-536 187,-100 417,-22 513,173l1074 2198c96,196 21,436 -166,536 -187,100 -417,22 -513,-173l-1074 -2198zm-15464 -15641c-117,-183 -70,-431 105,-553 175,-123 412,-74 529,109l1640 2569c117,183 70,431 -105,553 -175,123 -412,74 -529,-109l-1640 -2569zm-522 4325c-211,12 -391,-157 -402,-377 -12,-220 150,-408 360,-420l2124 -126c211,-12 391,157 402,377 12,220 -150,408 -360,420l-2124 126zm1750 2217c-187,100 -417,22 -513,-173 -96,-196 -21,-436 166,-536l1785 -953c187,-100 417,-22 513,173 96,196 21,436 -166,536l-1785 953zm4219 -5603c77,-205 298,-307 495,-227 197,80 294,312 217,517l-864 2297c-77,205 -298,307 -495,227 -196,-80 -294,-312 -217,-517l864 -2297zm-2227 -1627c16,-220 199,-385 410,-369 211,16 368,208 353,428l-184 2460c-16,220 -199,385 -410,369 -211,-16 -368,-208 -353,-428l184 -2460zm-6591 20194c-73,-207 29,-437 227,-513 198,-76 418,30 490,238l777 2196c73,207 -29,437 -227,513 -198,76 -418,-30 -490,-238l-777 -2196zm-1042 3156c-207,-39 -345,-246 -308,-463 37,-217 235,-361 442,-322l1587 298c207,39 345,246 308,463 -37,217 -235,361 -442,322l-1587 -298zm3531 -3132c64,-210 279,-325 480,-258 201,67 311,292 247,502l-550 1780c-64,210 -279,325 -480,258 -201,-67 -311,-292 -247,-502l550 -1780zm-5624 -6585c114,-186 350,-239 528,-120 178,119 229,366 115,552l-1211 1970c-114,186 -350,239 -528,120 -178,-119 -229,-366 -115,-552l1211 -1970zm-3038 1028c-95,-197 -19,-437 169,-536 188,-99 418,-20 513,177l727 1504c95,197 19,437 -169,536 -188,99 -418,20 -513,-177l-727 -1504zm-920 1974c-163,-140 -186,-391 -52,-561 134,-170 374,-194 537,-55l1175 1008c163,140 186,391 52,561 -134,170 -374,194 -537,55l-1175 -1008zm5061 1195c211,-8 387,164 395,384 7,220 -157,405 -368,413l-1789 69c-211,8 -387,-164 -395,-384 -7,-220 157,-405 368,-413l1789 -69zm380 -2106c199,-72 416,39 484,247 69,208 -37,435 -236,506l-1691 612c-199,72 -416,-39 -484,-247 -69,-208 37,-435 236,-506l1691 -612zm-11659 -5086c114,-186 350,-239 528,-120 178,119 229,366 115,552l-1211 1970c-114,186 -350,239 -528,120 -178,-119 -229,-366 -115,-552l1211 -1970zm-3038 1028c-95,-197 -19,-437 169,-536 188,-99 418,-20 513,177l727 1504c95,197 19,437 -169,536 -188,99 -418,20 -513,-177l-727 -1504zm-920 1974c-163,-140 -186,-391 -52,-561 134,-170 374,-194 537,-55l1175 1008c163,140 186,391 52,561 -134,170 -374,194 -537,55l-1175 -1008zm5061 1195c211,-8 387,164 395,384 7,220 -157,405 -368,413l-1789 69c-211,8 -387,-164 -395,-384 -7,-220 157,-405 368,-413l1789 -69zm380 -2106c199,-72 416,39 484,247 69,208 -37,435 -236,506l-1691 612c-199,72 -416,-39 -484,-247 -69,-208 37,-435 236,-506l1691 -612zm-2184 12810c-209,-30 -355,-232 -326,-450 29,-218 222,-371 431,-341l2218 325c209,30 355,232 326,450 -29,218 -222,371 -431,341l-2219 -325zm2127 -2224c-80,-204 13,-437 208,-520 195,-84 418,14 498,217l617 1557c80,204 -13,437 -208,520 -195,84 -418,-14 -498,-217l-617 -1557zm1975 236c4,-220 178,-395 389,-391 211,4 378,186 374,406l-35 1588c-4,220 -178,395 -389,391 -211,-4 -378,-186 -374,-406l35 -1588zm-1110 5347c-143,161 -384,171 -538,22 -154,-149 -164,-401 -21,-563l1216 -1373c143,-161 384,-171 538,-22 154,149 164,401 21,563l-1216 1373zm-1952 -923c-182,110 -416,45 -522,-145 -106,-191 -43,-435 139,-545l1547 -942c182,-110 416,-45 522,145 106,191 43,435 -139,545l-1547 942zm-8739 -7581c-201,67 -415,-48 -480,-258 -64,-210 46,-434 247,-502l2131 -722c201,-67 415,48 480,258 64,210 -46,434 -247,502l-2131 722zm985 -2972c-158,-146 -172,-398 -33,-563 140,-165 380,-180 538,-34l1206 1118c158,146 172,398 33,563 -140,165 -380,180 -538,34l-1206 -1118zm1873 -693c-88,-200 -3,-437 188,-528 192,-91 418,-3 505,197l633 1444c88,200 3,437 -188,528 -192,91 -418,3 -505,-197l-633 -1444zm1240 5318c-61,211 -274,329 -475,266 -201,-64 -315,-286 -254,-497l519 -1790c61,-211 274,-329 475,-266 201,64 315,286 254,497l-519 1790zm-2141 61c-117,183 -354,232 -529,109 -175,-123 -222,-370 -105,-553l997 -1554c117,-183 354,-232 529,-109 175,123 222,370 105,553l-997 1554zm-4737 1858c-158,-146 -172,-398 -33,-563 140,-165 380,-180 538,-34l1206 1118c158,146 172,398 33,563 -140,165 -380,180 -538,34l-1206 -1118zm1873 -693c-88,-200 -3,-437 188,-528 192,-91 418,-3 505,197l633 1444c88,200 3,437 -188,528 -192,91 -418,3 -505,-197l-633 -1444zm1240 5318c-61,211 -274,329 -475,266 -201,-64 -315,-286 -254,-497l519 -1790c61,-211 274,-329 475,-266 201,64 315,286 254,497l-519 1790zm-2141 61c-117,183 -354,232 -529,109 -175,-123 -222,-370 -105,-553l997 -1554c117,-183 354,-232 529,-109 175,123 222,370 105,553l-997 1554zm58317 -1568c182,110 245,353 141,544 -105,191 -338,256 -520,147l-1941 -1170c-182,-110 -245,-353 -141,-544 105,-191 338,-256 520,-147l1941 1170zm-1128 -3123c183,-109 416,-42 520,150 104,192 40,435 -144,544l-1403 831c-183,109 -416,42 -520,-150 -104,-192 -40,-435 144,-544l1403 -831zm-1931 -866c125,-177 364,-214 534,-83 169,131 205,381 79,558l-907 1275c-125,177 -364,214 -534,83 -169,-131 -205,-381 -79,-558l907 -1275zm-898 5340c17,220 -139,413 -350,431 -211,18 -395,-146 -413,-366l-152 -1864c-17,-220 139,-413 350,-431 211,-18 395,146 413,366l152 1864zm2030 295c78,205 -17,437 -212,519 -196,82 -418,-17 -496,-222l-666 -1737c-78,-205 17,-437 212,-519 196,-82 418,17 496,222l666 1737zm-6154 -25785c198,-75 417,32 489,239 72,207 -31,436 -229,511l-2494 947c-198,75 -417,-32 -489,-239 -72,-207 31,-436 229,-511l2494 -947zm-3524 -1366c38,-217 237,-360 444,-320 207,40 344,247 306,464l-348 1963c-38,217 -237,360 -444,320 -207,-40 -344,-247 -306,-464l348 -1963zm-2225 1136c-48,-215 80,-430 286,-480 206,-50 411,84 459,298l415 1831c48,215 -80,430 -286,480 -206,50 -411,-84 -459,-298l-415 -1831zm3838 5000c173,127 214,376 93,556 -121,180 -360,224 -532,97l-1732 -1278c-173,-127 -214,-376 -93,-556 121,-180 360,-224 532,-97l1732 1278zm1824 -1689c201,69 310,295 244,505 -66,210 -282,324 -483,255l-2014 -693c-201,-69 -310,-295 -244,-505 66,-210 282,-324 483,-255l2014 693zm-26227 -11763c69,-208 285,-318 484,-247 199,72 305,298 236,506l-734 2212c-69,208 -285,318 -484,247 -199,-72 -305,-298 -236,-506l734 -2212zm-2722 1744c-136,-167 -117,-419 43,-561 160,-142 400,-122 537,45l1045 1283c136,167 117,419 -43,561 -160,142 -400,122 -537,-45l-1045 -1283zm-451 2146c-190,-96 -270,-334 -178,-533 92,-198 320,-282 510,-186l1369 691c190,96 270,334 178,533 -92,198 -320,282 -510,186l-1369 -691zm5187 -83c203,-60 414,64 471,277 57,212 -62,433 -265,492l-1723 506c-203,60 -414,-64 -471,-277 -57,-212 62,-433 265,-492l1723 -506zm-104 -2140c178,-119 414,-65 528,120 114,186 62,432 -115,552l-1506 1010c-178,119 -414,65 -528,-120 -114,-186 -62,-432 115,-552l1506 -1010zm-24464 10284c-21,-219 131,-415 341,-438 210,-22 397,137 419,356l236 2328c21,219 -131,415 -341,438 -210,22 -397,-137 -419,-356l-236 -2328zm-1752 2793c-192,-91 -278,-327 -191,-528 87,-201 313,-291 505,-200l1468 697c192,91 278,327 191,528 -87,201 -313,291 -505,200l-1468 -697zm465 2140c-211,-2 -380,-182 -378,-402 2,-220 174,-397 384,-395l1520 17c211,2 380,182 378,402 -2,220 -174,397 -384,395l-1520 -17zm4660 -2380c159,-144 400,-126 538,41 138,167 120,418 -39,563l-1353 1224c-159,144 -400,126 -538,-41 -138,-167 -120,-418 39,-563l1353 -1224zm-965 -1891c112,-186 348,-242 526,-125 178,117 232,364 120,550l-952 1584c-112,186 -348,242 -526,125 -178,-117 -232,-364 -120,-550l952 -1584zm19648 3706c51,214 -73,431 -278,484 -205,54 -412,-77 -463,-291l-122 -501c-796,-3230 -1865,-7571 683,-12410 102,-193 334,-264 519,-158 185,106 253,349 151,542 -2404,4565 -1377,8730 -614,11829 82,333 89,359 125,504zm14497 3284c-107,190 -342,253 -523,141 -182,-112 -242,-357 -135,-547 83,-146 167,-295 253,-446 1622,-2872 3802,-6731 8880,-8270 202,-61 414,60 472,272 59,211 -58,432 -260,494 -4785,1451 -6878,5155 -8435,7911 -86,152 -170,301 -253,446zm8027 13040c-205,54 -413,-75 -465,-289 -52,-214 72,-432 277,-486 571,-151 435,-115 481,-127 2286,-615 5155,-1388 8384,-662 206,46 338,258 295,473 -44,216 -247,354 -453,308 -3059,-687 -5830,59 -8037,653 -373,100 -224,62 -481,130zm-37956 -451c205,54 329,272 277,486 -52,214 -260,343 -465,289 -255,-68 -108,-30 -481,-130 -1534,-413 -3338,-898 -5312,-928 -211,-3 -379,-183 -377,-403 2,-220 175,-396 386,-394 2066,31 3917,529 5491,953 46,13 -88,-24 481,127zm2955 -7484c182,112 242,357 135,547 -107,190 -342,253 -523,141 -139,-87 -282,-175 -427,-264 -2747,-1696 -6440,-3974 -7913,-9282 -59,-211 58,-432 260,-494 202,-61 414,60 472,272 1388,5002 4932,7189 7569,8816 145,90 288,178 427,264zm25095 11860c-5,4 -11,7 -16,11 -19,12 -39,25 -58,37 -2507,1598 -5306,3433 -6447,6587 -74,206 -295,310 -492,233 -197,-78 -297,-308 -223,-514 925,-2559 2801,-4275 4784,-5676 -931,22 -1799,-176 -2217,-459 -269,-182 -507,-397 -716,-642 -11,-12 -22,-24 -32,-37 -725,-867 -1106,-2087 -1257,-3445 -259,-2327 153,-5082 638,-7099 185,-769 384,-1536 582,-2303 1023,-3947 2039,-7873 840,-10859 191,1000 222,1988 134,2961 -165,1815 -748,3564 -1485,5229 -1533,3462 -1762,7031 -1967,10241 -262,4086 -488,7611 -3241,9789 638,1312 1100,2610 1452,3727 66,210 -43,436 -244,505 -201,69 -417,-45 -483,-255 -609,-1926 -1547,-4405 -3173,-6501 -1611,-2077 -3906,-3792 -7245,-4235 -209,-28 -357,-227 -330,-445 26,-218 217,-373 426,-345 3569,474 6021,2305 7741,4523 467,602 879,1232 1244,1870 175,-3386 -2150,-5967 -4650,-8742 -2906,-3226 -6039,-6704 -6021,-12051 -14,-535 10,-1097 77,-1691 25,-219 215,-376 425,-350 210,26 360,225 335,444 -603,5337 2622,8006 6044,10839 2452,2030 5001,4140 6427,7354 253,-1364 350,-2880 453,-4488 210,-3280 444,-6927 2036,-10523 706,-1595 1264,-3262 1420,-4970 153,-1684 -84,-3421 -957,-5187 -80,-146 -66,-335 47,-467 141,-164 383,-177 540,-30 3608,3392 2256,8609 894,13863 -199,767 -398,1535 -579,2290 -365,1518 -688,3464 -696,5298 1077,-3373 4682,-6446 7571,-8907 899,-766 1726,-1471 2378,-2103 15,-15 32,-29 49,-41l0 0c2,-2 5,-3 7,-5l1 -1 5 -3 4 -3 2 -1 6 -4 1 0c57,-34 120,-51 184,-51l4 0 6 0 6 0 3 0c3,0 6,0 9,0l0 0c30,2 60,7 89,17l1 0 7 2 3 1 5 2 4 2 3 1 6 3 1 0c41,17 79,42 113,73l2 2 4 4 4 4 2 2c19,19 35,39 49,61l0 0c2,2 3,5 5,7l1 1 3 5 2 4 1 3 4 7 0 1c32,60 48,126 49,192l0 4 0 6 0 6 0 3c0,3 0,6 0,9l0 0c-2,31 -7,63 -16,93l0 1 -2 7 -1 3 -2 5 -1 4 -1 3 -2 7 0 1c-13,33 -30,65 -51,94 -930,1324 -1979,2605 -3006,3860 -2494,3047 -4855,5931 -4923,8725 -27,1117 121,2057 584,2570 432,479 1198,597 2446,142l65 -41c2352,-1498 4400,-2803 4459,-4777 7,-220 183,-393 393,-386 211,7 376,191 369,411 -72,2406 -2284,3815 -4824,5433l-87 55zm-3244 -154c-46,-43 -91,-88 -134,-136 -620,-688 -822,-1823 -790,-3136 76,-3080 2522,-6068 5106,-9225 173,-211 346,-423 519,-635 -3963,3393 -8838,7875 -6261,12347 162,187 344,351 547,488 200,135 566,243 1013,296zm-16766 -11557c1122,1978 2657,3682 4131,5319 2603,2890 5026,5580 4864,9243 758,-803 1245,-1781 1570,-2892 -34,-37 -61,-82 -80,-133 -1257,-3496 -3946,-5722 -6524,-7855 -1435,-1188 -2837,-2348 -3962,-3682zm7434 27337c-35,-133 40,-270 167,-306 127,-36 258,42 292,175 256,973 590,1943 982,2848 379,873 810,1681 1277,2364 76,112 51,268 -56,348 -107,80 -256,54 -333,-59 -486,-712 -933,-1548 -1324,-2448 -400,-923 -743,-1919 -1007,-2922zm-578 -10525c7,13 13,27 19,41l1 2c142,307 283,627 424,962 567,1350 970,3076 1398,4914 845,3622 1793,7687 4272,9877 161,142 181,394 45,563 -136,168 -377,189 -538,47 -2668,-2356 -3648,-6556 -4521,-10298 -74,-318 -148,-633 -221,-943 -69,1280 -318,2470 -572,3658 -67,314 -140,747 -219,1215 -264,1561 -592,3504 -1358,4376 -719,818 -1603,848 -2663,885 -784,27 -1678,58 -2641,468 -196,83 -419,-16 -498,-220 -79,-205 15,-437 211,-520 1084,-461 2053,-495 2904,-524 885,-30 1622,-56 2125,-629 614,-699 921,-2514 1167,-3973 76,-449 146,-865 228,-1250 271,-1269 537,-2539 569,-3892 31,-1335 -165,-2769 -813,-4398 -3064,-6605 -6333,-6411 -9741,-6209 -1772,105 -3579,213 -5444,-534 -197,-79 -296,-309 -221,-516 75,-206 296,-310 493,-231 1716,686 3440,584 5130,484 3669,-218 7189,-426 10464,6645zm10665 15981c203,60 322,280 265,492 -57,212 -268,336 -471,277 -688,-203 -1314,-597 -1880,-1124 -612,-570 -1155,-1300 -1629,-2114 -110,-188 -53,-434 127,-548 180,-115 415,-55 525,133 436,749 932,1417 1486,1933 483,450 1010,784 1578,952zm-4239 -5378c116,184 68,431 -108,553 -176,122 -413,71 -529,-113 -352,-555 -708,-1285 -1029,-2105 -311,-793 -587,-1668 -794,-2545 -50,-214 75,-430 280,-483 205,-53 412,78 462,292 200,847 464,1684 758,2436 300,765 632,1447 961,1964z"/></g><text x="0" y="60015" fill="#000000" font-size="5px" font-weight="bold" font-family="'Helvetica Neue', Helvetica, Arial-Unicode, Arial, Sans-serif">Created by Olena Panasovska</text><text x="0" y="60020" fill="#000000" font-size="5px" font-weight="bold" font-family="'Helvetica Neue', Helvetica, Arial-Unicode, Arial, Sans-serif">from the Noun Project</text></svg>