<svg xmlns="http://www.w3.org/2000/svg" xmlns:xlink="http://www.w3.org/1999/xlink" xml:space="preserve" version="1.1" style="shape-rendering:geometricPrecision;text-rendering:geometricPrecision;image-rendering:optimizeQuality;" viewBox="0 0 100 100" x="0px" y="0px" fill-rule="evenodd" clip-rule="evenodd"><defs><style type="text/css">
   
    .fil0 {fill:black;fill-rule:nonzero}
   
  </style></defs><g><path class="fil0" d="M31341.26 34450.58c161.05,-31.51 323.42,-63.48 486.94,-95.85l851.08 -3750.97c-34.79,1.4 -69.74,2.14 -104.87,2.14 -707.79,0 -1348.61,-286.92 -1812.49,-750.8 -102.11,-102.11 -195.64,-212.81 -279.44,-330.9l-3752.61 2012.72c-218.41,161.15 -310.3,290.85 -304.35,407.07 8.19,159.8 147.43,367.35 377.92,628.28l3282.18 3715.73 0.12 -0.11c123.64,141.49 287.31,213.5 453.96,227.02 189.88,15.4 380.77,-40.57 523.47,-153.33 172.59,-136.37 235.51,-277.04 230.3,-415.49 -6.47,-172.02 -100.68,-370.31 -230.13,-569.88l-1514.8 -1874.47c-8.24,-10.25 -15.89,-20.8 -22.95,-31.57l-0.49 0.32c-48.35,-73.79 -87.89,-149.77 -118.82,-227.09 -87.13,-217.83 -96.76,-429.5 -35.15,-623.64 62.16,-195.9 191.85,-361.91 382.81,-487.04 61.01,-39.97 130.18,-76.1 207.18,-107.91l1155.34 -523.68c201.06,-90.6 437.52,-1.06 528.12,200 90.6,201.06 1.06,437.52 -200,528.12l-1155.38 523.6 -0.16 -0.35c-5.09,2.29 -10.23,4.5 -15.46,6.6 -30.03,12.01 -57.48,26.22 -82.14,42.38 -32.72,21.44 -52.28,41.47 -57.81,58.9 -6.08,19.18 -1.91,48.19 13.27,86.14 8.86,22.17 22.12,47.34 39.9,75.49l1154.46 1428.57zm-5036.19 820.56l3.74 -2029.19 22.79 0 -125.04 -141.56c-347.17,-393.03 -559.06,-747.83 -577.92,-1115.78 -20.57,-401.56 171.69,-755.55 639.61,-1097.55 14.07,-11.51 29.06,-22.18 44.96,-31.89l24.16 -13105.29c-5208.02,-735.87 -8437.2,433.38 -11882.84,1681.55 -3147.06,1140.02 -6470.71,2343.99 -11602.33,2283.07 -521.93,-6.19 -862.16,-144.96 -1088.48,-427.8 -211.96,-264.89 -282.55,-618.73 -284.19,-1084.02l0 -6.25 245.13 -14592.15c0,-334.7 93.97,-555.36 291.51,-707.68 178.05,-137.3 398.9,-177.21 684.59,-170.78 5134.49,115.54 8394.62,-1067.91 11477.66,-2187.07 3467.39,-1258.68 6716.37,-2438.07 12092.24,-1689.12 440.71,61.39 670.65,269.29 793.98,584.88 95.51,244.41 98.72,520.62 98.14,840l-51.9 28152.13 3016.69 -1618.01c-75.67,-241.9 -116.46,-499.2 -116.46,-766.03 0,-707.79 286.93,-1348.62 750.81,-1812.5 463.88,-463.88 1104.7,-750.8 1812.49,-750.8 707.79,0 1348.61,286.93 1812.49,750.81 463.88,463.88 750.8,1104.7 750.8,1812.49 0,707.79 -286.92,1348.61 -750.8,1812.49 -240.2,240.2 -527.85,432.93 -847.66,562.97l-854.4 3765.59c2140.7,-431.13 4436.88,-918.92 6612.72,-1386.15l-332.88 -4454.74 0.83 -0.06c-90.97,-951.2 48.5,-1963.95 183,-2940.35 61.72,-448.08 122.36,-888.17 157.78,-1314.7l-1361.48 -1312.38c-16.32,-15.69 -30.98,-32.45 -44.04,-50.05 -112.47,-138.71 -203.47,-276.4 -272.31,-412.33 -153.78,-303.62 -203.28,-603.49 -142.94,-893.83 59.99,-288.58 225.58,-549.91 502.02,-777.14 128.91,-105.95 281.11,-203.94 457.06,-293.05l2432.74 -1232.17c-381.54,-342.81 -664.17,-803.05 -785.55,-1341.36 -155.59,-690.1 -16.86,-1377.72 333.19,-1931.59 350.51,-554.57 912.51,-975.44 1602.86,-1131.11 690.08,-155.59 1377.72,-16.87 1931.59,333.19 554.58,350.49 975.45,912.47 1131.1,1602.82 155.6,690.11 16.87,1377.75 -333.18,1931.63 -177.07,280.15 -408.12,526.15 -682.4,721.11l25.58 303.22c207.32,-131.1 427.24,-226.4 658.39,-259.51 380.64,-54.51 761.2,51.81 1120.08,419.45 266.53,273 424.99,652.57 434.18,1040.95 7.21,304.58 -75.59,614.8 -267.48,885.22 1533.14,562.78 2115.63,-259.55 2337.16,-572.36l53.49 -75.39 1304.86 -2051.5 0.14 0.09c7.14,-11.23 14.9,-22.22 23.3,-32.91 53.18,-67.65 108.5,-132.98 166.15,-194.99l-4321.35 -653c-199.49,-22.59 -354.51,-191.89 -354.51,-397.41l0 -835.56 0.21 0c-0.24,-194.73 142.05,-365.52 340.41,-395.31l10634.72 -1607.02c35.79,-5.37 71.17,-5.79 105.48,-1.83 21.05,-1.85 42.3,-2.84 63.78,-2.84 400.01,0 726.77,323.5 931.69,846.51 160.64,409.99 260,967.09 260,1574.09 0,607 -99.36,1164.1 -260,1574.09 -204.92,523.01 -531.68,846.51 -931.69,846.51 -8.94,0 -17.83,-0.22 -26.7,-0.54 -45.61,9.71 -93.72,11.56 -142.56,4.23l-3895.72 -588.69c36.63,82.18 66.23,167.64 88.02,255.31 87.54,352.2 51.81,740.26 -155.7,1096.04l-0.67 -0.39 -2473.04 4292.82c-150.6,261.39 -362.7,462.42 -610.15,604.38 -255.9,146.79 -550.91,231 -853.92,253.54 -354.23,26.34 -1109.57,-212.84 -1958.78,-538.98 -612.51,-235.23 -1279.76,-515.35 -1872.01,-769.03l609.92 7230.94c1262.87,-265.93 2303.56,-477.15 3003.66,-600.55 470.52,-82.94 861.35,-39.81 1175.82,86.22 347.81,139.39 596.47,377.18 754.85,660.97 153.2,274.52 218.03,589.88 203.43,896.59 -15.93,334.82 -127.55,665.27 -323.05,926.31 -800.52,1068.84 -2207.19,2591.86 -3728.93,4148.59 -2676.47,2738.02 -5712.04,5586.61 -6420.59,6239.48 -347.95,320.62 -925.9,579.44 -1544.59,766.82 -740.68,224.3 -1564.89,354.15 -2103.61,362.76l-10031.81 169.77 -12.5 -0.02 -10031.82 -169.75c-538.72,-8.61 -1362.93,-138.46 -2103.61,-362.76 -618.7,-187.38 -1196.65,-446.21 -1544.6,-766.82 -708.55,-652.87 -3744.11,-3501.45 -6420.58,-6239.48 -1521.74,-1556.73 -2928.42,-3079.74 -3728.94,-4148.59 -195.52,-261.04 -307.11,-591.5 -323.06,-926.32 -14.6,-306.72 50.23,-622.08 203.44,-896.59 158.37,-283.79 407.04,-521.58 754.84,-660.97 314.48,-126.02 705.31,-169.15 1175.83,-86.21 125.59,22.13 270.38,48.75 432.9,79.46 -177.49,-257.94 -282.2,-505.29 -295.2,-758.91 -20.57,-401.56 171.69,-755.55 639.61,-1097.55 19.57,-16.01 40.93,-30.4 64.03,-42.82l3795.29 -2035.61c-75.67,-241.9 -116.46,-499.2 -116.46,-766.03 0,-707.79 286.93,-1348.62 750.81,-1812.5 463.88,-463.88 1104.7,-750.8 1812.49,-750.8 707.79,0 1348.62,286.92 1812.5,750.8 463.88,463.88 750.8,1104.71 750.8,1812.5 0,707.79 -286.92,1348.61 -750.8,1812.49 -240.2,240.2 -527.85,432.94 -847.67,562.98l-857.51 3779.32c725.43,149.59 1507.5,309.19 2269.22,464.64 571.93,116.72 1132.91,231.21 1636.61,334.48l-161.67 -183.03c-347.16,-393.03 -559.06,-747.82 -577.92,-1115.78 -20.57,-401.56 171.69,-755.55 639.61,-1097.55 19.57,-16.01 40.93,-30.4 64.03,-42.82l3795.29 -2035.61c-75.67,-241.9 -116.46,-499.2 -116.46,-766.03 0,-707.79 286.93,-1348.62 750.81,-1812.5 463.88,-463.88 1104.7,-750.8 1812.49,-750.8 707.79,0 1348.62,286.92 1812.5,750.8 463.88,463.88 750.8,1104.71 750.8,1812.5 0,707.79 -286.92,1348.62 -750.8,1812.5 -240.2,240.2 -527.85,432.94 -847.67,562.98l-936.49 4127.44c461.37,88.49 897.73,170.43 1303.75,244.51 857.16,156.38 1653.87,293.09 2364.99,403.09 337.5,52.21 717.55,79.06 1098.07,79.25 48.29,0.02 96.55,-0.39 144.71,-1.23zm799.01 -1154.69l-2.03 1097.51c45.55,-6.06 90.46,-12.61 134.63,-19.63 172.34,-27.41 389.52,-63.23 647.99,-106.77l67.17 -11.37 -847.76 -959.74zm-765.22 -17171.16l27.04 -14670.78c0.43,-235.48 -0.92,-436.53 -45.02,-549.38 -16.28,-41.68 -61.07,-71.16 -159.6,-84.88 -5181.22,-721.84 -8339.93,424.79 -11710.98,1648.5 -3150.3,1143.58 -6481.56,2352.84 -11765.16,2233.95 -107.81,-2.42 -172.64,-1.65 -181.47,5.16 -11.87,9.15 17.64,16 17.87,82.67l0 6.25 -245.11 14590.67c1.29,285.12 28.64,481.73 109.17,582.37 66.63,83.27 214.57,124.7 475.98,127.8 4984.59,59.17 8239.29,-1119.82 11321.07,-2236.19 3518.62,-1274.61 6817.47,-2469.36 12156.21,-1736.14zm31796.66 41642.24c220.05,1.72 397.03,181.52 395.31,401.57 -1.72,220.05 -181.52,397.03 -401.57,395.31 -2796.68,-28.61 -3839.92,-1050.74 -4894.93,-2084.43 -949.25,-930.06 -1909.3,-1870.59 -4479.95,-1923.48 -1048.97,21.67 -1827.27,187.96 -2443.77,439.61 -608.59,248.43 -1062.73,582.8 -1466.61,943.26 -163.96,146.7 -415.81,132.71 -562.51,-31.25 -146.7,-163.96 -132.71,-415.81 31.25,-562.51 465.36,-415.34 990.2,-801.24 1697.87,-1090.12 698.14,-284.98 1571.05,-472.88 2736.51,-496.06l15.62 0c2893.53,57.56 3968.26,1110.57 5030.97,2151.79 939.65,920.66 1868.8,1831.01 4341.81,1856.31zm-56264.78 796.88c-220.05,1.72 -399.85,-175.26 -401.57,-395.31 -1.72,-220.05 175.26,-399.85 395.31,-401.57 2473.01,-25.3 3402.16,-935.65 4341.81,-1856.31 1062.71,-1041.22 2137.44,-2094.23 5030.97,-2151.79 5.23,-0.1 10.44,-0.07 15.62,0.03l5.14 0.1c2889.61,58.71 3963.75,1111.06 5025.83,2151.66 939.25,920.25 1868.05,1830.21 4338.69,1856.26 2470.64,-26.05 3399.43,-935.99 4338.68,-1856.26 1062.71,-1041.22 2137.44,-2094.23 5030.97,-2151.79 5.23,-0.1 10.44,-0.07 15.62,0.03l5.14 0.1c2889.61,58.71 3963.75,1111.06 5025.83,2151.66 939.65,920.64 1868.81,1831.01 4341.81,1856.31 220.05,1.72 397.03,181.52 395.31,401.57 -1.72,220.05 -181.52,397.03 -401.57,395.31 -2796.68,-28.61 -3839.92,-1050.75 -4894.93,-2084.43 -949.18,-929.99 -1909.18,-1870.46 -4479.4,-1923.47 -2570.24,53.01 -3530.22,993.48 -4479.4,1923.47 -1054.37,1033.07 -2097.04,2054.56 -4889.93,2084.35l-11.26 0.08c-2796.68,-28.61 -3839.92,-1050.75 -4894.94,-2084.43 -949.18,-929.99 -1909.18,-1870.46 -4479.4,-1923.47 -2570.24,53.01 -3530.22,993.48 -4479.4,1923.47 -1055.01,1033.69 -2098.25,2055.82 -4894.93,2084.43zm212.18 -3814.13c-220.05,1.72 -399.85,-175.26 -401.57,-395.31 -1.72,-220.05 175.26,-399.85 395.31,-401.57 2472.99,-25.3 3402.16,-935.66 4341.8,-1856.3 175.27,-171.73 350.89,-343.8 524.74,-502.07 163.09,-148.42 415.64,-136.53 564.06,26.56 148.42,163.09 136.53,415.64 -26.56,564.06 -179.93,163.81 -341.57,322.17 -502.86,480.21 -1055.01,1033.67 -2098.25,2055.81 -4894.92,2084.42zm10375.8 -3935.47c-218.32,-28.47 -372.22,-228.55 -343.75,-446.87 28.47,-218.32 228.55,-372.22 446.87,-343.75 636.93,83.5 1167.12,226.64 1622.81,410.93 462.8,187.17 847.4,414.99 1187.75,665.22 425.97,313.18 775.47,655.62 1123.63,996.74 939.65,920.66 1868.81,1831.02 4341.82,1856.32 220.05,1.72 397.03,181.52 395.31,401.57 -1.72,220.05 -181.52,397.03 -401.57,395.31 -2796.68,-28.61 -3839.93,-1050.75 -4894.94,-2084.44 -326.39,-319.79 -654.04,-640.82 -1036.13,-921.74 -292.32,-214.92 -620.71,-409.8 -1012.75,-568.36 -399.13,-161.42 -865.74,-287.08 -1429.05,-360.93zm32224.69 -1699.78c-163.09,148.42 -415.64,136.53 -564.06,-26.56 -148.42,-163.09 -136.53,-415.64 26.56,-564.06 467.88,-425.96 993.08,-825.74 1713.02,-1128.98 709.72,-298.92 1598.7,-496.99 2793.23,-520.75 5.23,-0.1 10.43,-0.06 15.62,0.03 951.83,18.9 1708.7,148.13 2334.94,350.52 639.71,206.74 1141.12,487.4 1572.39,804.48 177.76,130.3 216.24,380.06 85.94,557.82 -130.3,177.76 -380.06,216.24 -557.82,85.94 -370.29,-272.25 -799.36,-512.75 -1344.27,-688.86 -556.66,-179.9 -1236.21,-295.1 -2098.92,-312.88 -1079.02,22.22 -1869.94,196.2 -2491.73,458.08 -613.05,258.22 -1071.76,609.1 -1484.9,985.22zm-14695.9 1636.07c-220.05,-6.9 -392.84,-190.89 -385.94,-410.94 6.9,-220.05 190.89,-392.84 410.94,-385.94 3509.22,116.92 4693.43,1315.04 5770.05,2404.3 126.35,127.83 251.13,254.08 379.41,377.36 188.14,180.81 382.27,352.9 597.21,508.41 209.1,151.28 435.73,285.25 692.69,393.55 240.36,101.31 510.9,182.87 822.99,238.85 319.07,57.23 681.61,87.79 1099.48,85.63 2473.01,-25.31 3402.17,-935.68 4341.81,-1856.31 175.25,-171.72 350.87,-343.77 524.73,-502.06 467.89,-425.96 993.09,-825.75 1713.02,-1128.97 709.71,-298.92 1598.69,-497 2793.22,-520.76 5.23,-0.1 10.43,-0.06 15.62,0.03 951.83,18.9 1708.71,148.13 2334.95,350.51 639.71,206.74 1141.12,487.41 1572.39,804.49 425.97,313.18 775.48,655.62 1123.65,996.75 727.97,713.25 1449.67,1420.37 2854.83,1710.47 215.73,44.01 354.95,254.59 310.94,470.32 -44.01,215.73 -254.59,354.95 -470.32,310.94 -1637.16,-338 -2442.49,-1127.06 -3254.83,-1922.97 -326.4,-319.8 -654.05,-640.83 -1036.15,-921.75 -370.29,-272.25 -799.36,-512.76 -1344.27,-688.87 -556.66,-179.89 -1236.22,-295.09 -2098.93,-312.87 -1079.02,22.22 -1869.93,196.21 -2491.72,458.09 -613.05,258.2 -1071.76,609.09 -1484.9,985.21 -179.92,163.8 -341.57,322.17 -502.85,480.2 -1055.02,1033.67 -2098.26,2055.81 -4894.93,2084.42l-1.57 0c-468.22,2.52 -879,-32.51 -1244.79,-98.12 -373.14,-66.93 -699.41,-165.63 -991.75,-288.85 -323.38,-136.29 -601.14,-299.51 -852.07,-481.05 -245.09,-177.32 -466.69,-373.78 -681.57,-580.29 -132.3,-127.14 -262.86,-259.23 -395.05,-392.98 -969.84,-981.22 -2036.61,-2060.53 -5226.29,-2166.8zm-28116.77 264.69c-220.05,1.72 -399.85,-175.26 -401.57,-395.31 -1.72,-220.05 175.26,-399.85 395.31,-401.57 2473.01,-25.3 3402.16,-935.65 4341.81,-1856.31 1062.71,-1041.22 2137.44,-2094.23 5030.97,-2151.79 5.23,-0.1 10.44,-0.07 15.62,0.03l5.14 0.1c2889.61,58.71 3963.75,1111.06 5025.83,2151.66 939.25,920.26 1868.04,1830.21 4338.69,1856.26 2470.64,-26.05 3399.43,-935.99 4338.68,-1856.26 1062.71,-1041.22 2137.44,-2094.23 5030.97,-2151.79 5.23,-0.1 10.44,-0.07 15.62,0.03l5.14 0.1c2889.61,58.71 3963.74,1111.05 5025.82,2151.66 939.65,920.65 1868.8,1831.01 4341.82,1856.31 220.05,1.72 397.03,181.52 395.31,401.57 -1.72,220.05 -181.52,397.03 -401.57,395.31 -2796.68,-28.61 -3839.91,-1050.74 -4894.94,-2084.43 -949.18,-930 -1909.16,-1870.46 -4479.39,-1923.47 -2570.24,53.01 -3530.22,993.48 -4479.4,1923.47 -1054.37,1033.07 -2097.04,2054.56 -4889.93,2084.35l-11.26 0.08c-2796.68,-28.61 -3839.91,-1050.74 -4894.94,-2084.43 -949.18,-929.99 -1909.18,-1870.46 -4479.4,-1923.47 -2570.24,53.01 -3530.22,993.48 -4479.4,1923.47 -1055.01,1033.69 -2098.25,2055.82 -4894.93,2084.43zm53564.81 -36031.77l-9380.61 1417.51 0 147.88 9383.73 1417.98c-143.41,-401.32 -230.82,-926.76 -230.82,-1496.1 0,-565.18 86.15,-1087.08 227.7,-1487.27zm1151.92 203.8c-81.61,-208.29 -150.71,-337.13 -187.93,-337.13 -37.22,0 -106.32,128.84 -187.93,337.13 -125.89,321.3 -203.76,774.53 -203.76,1283.47 0,508.94 77.87,962.17 203.76,1283.47 81.61,208.29 150.71,337.13 187.93,337.13 37.22,0 106.32,-128.84 187.93,-337.13 125.89,-321.3 203.76,-774.53 203.76,-1283.47 0,-508.94 -77.87,-962.17 -203.76,-1283.47zm-16552.6 8782.13c-29.16,235.35 -62.3,475.89 -95.74,718.66 -128.9,935.76 -262.61,1906.46 -179.13,2766.96l0.64 7.88 0.92 -0.07 324.65 4344.56c385.52,-82.97 766.09,-164.96 1140.03,-245.54 1101.97,-237.45 2146.82,-462.58 3093.66,-663.98l-628.05 -7445.87 -1102.97 1201.67c-6.88,8.45 -14.12,16.71 -21.79,24.71 -193.96,233.81 -454.41,382.92 -763.92,405.4 -296.5,21.53 -625.31,-78.28 -962.72,-341.42 -10.9,-8.51 -21.24,-17.47 -31,-26.85l-0.27 0.28 -774.31 -746.39zm-213.91 8711.94c-9.63,2.45 -19.41,4.56 -29.32,6.3 -2605.55,560.08 -5406.88,1155.84 -7927.35,1653.43 129.03,241.63 216.25,495.44 226.06,756.35 14.44,383.68 -130.85,750.53 -533.42,1068.61 -300.86,237.73 -694.58,356.46 -1079.73,325.21 -362.21,-29.39 -719.41,-187.57 -991.46,-498.9l0.1 -0.09 -912.49 -1033.01c-162.13,28.23 -347.49,59.91 -557.42,95.27 -189.03,31.84 -406.36,67.35 -654.25,106.77 -370.68,58.95 -785.96,87.64 -1201.32,87.42 -420.31,-0.22 -842.5,-30.24 -1219.95,-88.63 -718.6,-111.15 -1521.48,-248.9 -2383.73,-406.21 -623.84,-113.82 -1248.16,-231.57 -1870.14,-351.99 111.62,223.29 185.62,456.43 194.62,695.55 14.44,383.69 -130.86,750.53 -533.43,1068.61 -300.86,237.73 -694.57,356.46 -1079.72,325.21 -362.21,-29.39 -719.41,-187.57 -991.46,-498.9l0.1 -0.09 -2237.66 -2533.21c-788.67,-164.23 -1715.98,-353.49 -2675.95,-549.39 -1110.07,-226.54 -2261.68,-461.55 -3174.67,-651.64l69.44 85.93c13.8,15.28 26.61,31.8 38.24,49.57 202.95,309.77 352.73,644.03 365.78,990.82 14.44,383.69 -130.86,750.53 -533.43,1068.61 -300.87,237.73 -694.58,356.46 -1079.73,325.2 -362.22,-29.39 -719.41,-187.57 -991.44,-498.9l0.1 -0.09 -2732.56 -3093.47c-216.33,-43.46 -441.49,-87.9 -677.86,-133.67 -254.82,-49.35 -495.8,-94.22 -722,-134.09 -315.07,-55.53 -559.26,-33.68 -741.45,39.33 -164.93,66.1 -281.66,176.71 -354.84,307.85 -78.36,140.41 -111.29,306.58 -103.44,471.59 8.6,180.71 65.17,354.18 163.68,485.7 774.13,1033.61 2158.95,2531.49 3663.32,4070.45 2656.31,2717.4 5682.36,5556.83 6389.32,6208.24 249.71,230.09 717.33,431.85 1235.24,588.7 678.2,205.38 1414.85,323.98 1884.85,331.5l10025.57 169.66 10025.56 -169.66c470,-7.52 1206.65,-126.12 1884.85,-331.5 517.9,-156.85 985.53,-358.61 1235.23,-588.7 706.96,-651.41 3733.02,-3490.84 6389.33,-6208.24 1504.38,-1538.97 2889.19,-3036.85 3663.31,-4070.45 98.5,-131.52 155.07,-304.99 163.67,-485.69 7.85,-165.01 -25.08,-331.18 -103.43,-471.59 -73.18,-131.13 -189.91,-241.75 -354.85,-307.85 -182.2,-73.02 -426.38,-94.87 -741.44,-39.34 -1337.51,235.75 -3889.32,785.61 -6857.53,1425.19 -512.61,110.46 -1037.62,223.59 -1570.9,338.23zm2174.45 -8562.37l5.11 -4.99 3339.07 -3637.6c126.57,-137.89 180.63,-307.04 176.71,-472.67 -4.46,-188.37 -80.8,-371.95 -209.18,-503.45 -153.17,-156.91 -299.11,-204.65 -435.7,-185.09 -170.98,24.49 -356.42,136.41 -538.71,283.04l-1710.49 1706.86c-156.19,155.33 -408.73,154.63 -564.06,-1.56 -155.33,-156.19 -154.63,-408.73 1.56,-564.06l1294.38 -1291.63 -50.22 -595.38c-49.09,14.18 -98.89,27.01 -149.39,38.4l-0.3 0.06c-514.74,115.99 -1028.11,68.21 -1485.62,-108.86 -19.72,15.19 -41.13,28.77 -64.18,40.39l-2800.41 1418.39c-125.17,63.39 -228.37,128.92 -310.18,196.17 -129.64,106.56 -204.41,215.23 -227.02,324.02 -22.25,107.05 3.32,232.04 74.18,371.95 42.79,84.49 100.38,171.85 172.34,261.58l2835.81 2733.53c158.46,119.55 291.96,166.51 397.8,158.83 75.83,-5.5 144.59,-46.11 201.08,-110.84 13.77,-20.1 29.56,-39.23 47.42,-57.09zm2463.63 -1502.81c665.36,287.02 1475.68,632.63 2195.66,909.14 751.9,288.77 1392.97,502.6 1618.14,485.86 184.68,-13.73 362.15,-63.72 513.3,-150.42 131.54,-75.46 241.82,-178.04 316.41,-307.5l2474.4 -4295.15 -0.69 -0.4c95.45,-163.65 111.77,-342.67 71.32,-505.42 -45.43,-182.77 -159.31,-344.79 -312.12,-444.35 -184.61,-120.28 -337.96,-135.19 -467.27,-86.19 -159.96,60.61 -316.21,210.42 -462.41,393.7l-1296.59 2038.51c-9.53,15.03 -19.91,29.19 -31.01,42.49 -24.62,31.56 -34.25,45.12 -45.32,60.76 -334.21,471.91 -1242.32,1753.69 -3551.24,744.89l-1022.58 1114.08zm-924.61 -7715.88c-382.02,-241.44 -855.97,-337.22 -1331.27,-230.14l-0.35 0.08c-475.12,107.13 -861.79,396.61 -1102.83,777.98 -236.67,374.47 -333.35,837.25 -236.23,1303.08 5.51,18.19 9.76,36.93 12.64,56.12 111.96,462.5 397.54,838.89 771.51,1075.25 374.48,236.67 837.29,333.36 1303.13,236.22 18.18,-5.5 36.9,-9.75 56.07,-12.63 153.65,-37.19 297.8,-93.54 430.47,-165.94 14.31,-9.38 29.3,-17.85 44.86,-25.37 246.56,-144.13 451.03,-344.62 599.92,-580.2 241.47,-382.06 337.25,-856.07 230.1,-1331.46l-0.04 -0.17c-107.12,-475.13 -396.61,-861.79 -777.98,-1102.82zm-33062.33 16601.63l778.65 -3431.79c-34.78,1.4 -69.74,2.14 -104.87,2.14 -707.79,0 -1348.61,-286.93 -1812.49,-750.81 -102.11,-102.11 -195.64,-212.81 -279.43,-330.89l-3752.62 2012.72c-218.41,161.15 -310.3,290.85 -304.35,407.07 8.19,159.79 147.44,367.33 377.92,628.27 335.21,379.49 649.73,735.55 984.46,1114.49l2297.74 2601.24 0.12 -0.11c123.63,141.49 287.29,213.5 453.94,227.02 189.89,15.41 380.77,-40.56 523.47,-153.32 172.59,-136.37 235.52,-277.04 230.31,-415.49 -6.48,-172.02 -100.67,-370.3 -230.13,-569.88l-1514.8 -1874.47c-8.24,-10.25 -15.89,-20.8 -22.95,-31.57l-0.49 0.32c-48.36,-73.79 -87.89,-149.76 -118.82,-227.09 -87.13,-217.82 -96.77,-429.49 -35.16,-623.64 62.16,-195.89 191.85,-361.93 382.82,-487.05 61,-39.98 130.16,-76.1 207.18,-107.91l1155.33 -523.67c201.06,-90.6 437.52,-1.06 528.12,200 90.6,201.06 1.06,437.52 -200,528.12l-1155.37 523.58 -0.16 -0.35c-5.09,2.29 -10.23,4.5 -15.46,6.6 -30.02,12.01 -57.47,26.22 -82.14,42.39 -32.73,21.44 -52.29,41.48 -57.82,58.91 -6.08,19.17 -1.9,48.19 13.28,86.14 8.86,22.15 22.09,47.31 39.86,75.44l635.26 786.09c3.7,0.67 7.4,1.39 11.11,2.18 317.29,68.15 678.1,144.18 1067.49,225.32zm1920.66 -7239.83c-319.06,-319.06 -759.92,-516.42 -1246.88,-516.42 -486.96,0 -927.81,197.36 -1246.87,516.42 -319.06,319.06 -516.43,759.92 -516.43,1246.88 0,486.96 197.37,927.81 516.43,1246.87 319.06,319.06 759.91,516.43 1246.87,516.43 486.96,0 927.82,-197.37 1246.88,-516.43 319.06,-319.06 516.42,-759.91 516.42,-1246.87 0,-486.96 -197.36,-927.82 -516.42,-1246.88zm8217.4 9311.09l859.92 -3789.96c-34.79,1.4 -69.74,2.14 -104.87,2.14 -707.79,0 -1348.61,-286.92 -1812.49,-750.8 -102.11,-102.11 -195.64,-212.81 -279.44,-330.9l-3752.61 2012.72c-218.41,161.15 -310.3,290.85 -304.35,407.07 8.19,159.8 147.44,367.34 377.92,628.28l894.45 1012.59c62.96,40.34 112.8,97.43 144.62,163.73l2243.12 2539.41 0.12 -0.11c123.64,141.49 287.31,213.5 453.96,227.02 189.88,15.4 380.77,-40.58 523.46,-153.33 172.59,-136.37 235.52,-277.04 230.31,-415.49 -6.48,-172.02 -100.67,-370.3 -230.13,-569.88l-1514.81 -1874.47c-8.24,-10.25 -15.89,-20.8 -22.95,-31.57l-0.49 0.32c-48.35,-73.79 -87.9,-149.76 -118.83,-227.1 -87.11,-217.82 -96.75,-429.49 -35.14,-623.63 62.16,-195.89 191.85,-361.9 382.81,-487.03 61,-39.98 130.18,-76.11 207.19,-107.92l1155.33 -523.68c201.06,-90.6 437.52,-1.06 528.12,200 90.6,201.06 1.06,437.52 -200,528.12l-1155.37 523.6 -0.16 -0.35c-5.09,2.29 -10.23,4.5 -15.46,6.6 -30.03,12.01 -57.48,26.22 -82.15,42.39 -32.72,21.44 -52.29,41.47 -57.81,58.89 -6.08,19.18 -1.91,48.19 13.26,86.13 8.86,22.16 22.11,47.32 39.88,75.46l1009.41 1249.08c211.33,41.85 419.2,82.77 623.18,122.67zm2001.93 -7598c-319.06,-319.06 -759.92,-516.42 -1246.88,-516.42 -486.96,0 -927.81,197.36 -1246.87,516.42 -319.06,319.06 -516.43,759.92 -516.43,1246.88 0,486.96 197.37,927.82 516.43,1246.88 319.06,319.06 759.91,516.42 1246.87,516.42 486.96,0 927.82,-197.36 1246.88,-516.42 319.06,-319.06 516.42,-759.92 516.42,-1246.88 0,-486.96 -197.36,-927.82 -516.42,-1246.88zm11209.19 0.01c-319.06,-319.06 -759.91,-516.43 -1246.87,-516.43 -486.96,0 -927.81,197.36 -1246.87,516.42 -319.06,319.06 -516.43,759.92 -516.43,1246.88 0,486.96 197.37,927.82 516.43,1246.88 319.06,319.06 759.91,516.42 1246.87,516.42 486.96,0 927.81,-197.37 1246.87,-516.43 319.06,-319.06 516.42,-759.91 516.42,-1246.87 0,-486.96 -197.36,-927.81 -516.42,-1246.87z"/></g></svg>