<svg xmlns="http://www.w3.org/2000/svg" xmlns:xlink="http://www.w3.org/1999/xlink" xml:space="preserve" version="1.1" style="shape-rendering:geometricPrecision;text-rendering:geometricPrecision;image-rendering:optimizeQuality;" viewBox="0 0 50000 62500" x="0px" y="0px" fill-rule="evenodd" clip-rule="evenodd"><defs><style type="text/css">
   
    .fil0 {fill:black;fill-rule:nonzero}
   
  </style></defs><g><path class="fil0" d="M31503.06 32025.77l-12067.11 0c-963.01,0 -1750,-786.99 -1750,-1750l0 -1022.95c-1547.84,236.34 -1356.06,2304 73.08,2948.29 640.77,288.88 3089.58,171.73 4218.51,477.81 1794.54,486.55 3503.66,227.2 5032.98,616.32 1641.29,417.69 2408.2,2255.82 2934.74,3768.88 1085.5,3119.42 1891.6,3553.33 4055.71,5318.4 1558.24,1270.97 2913.41,2990.83 3600.96,4891.05 938.96,2587.94 7617.55,-222.41 8756.46,-2187.89 475.62,-820.78 404.31,-1790.43 -544.53,-3011.08 -2715.23,-3493.16 -3595.88,-7200.57 -3922.94,-11502.93 -227.97,-2998.67 -473.51,-6228.43 -2271.02,-8539.5 -832.34,-1070.12 -2734.44,-2099.89 -3926.47,-3421.34l-4.84 -5.37c-507.75,393.24 -1137.16,573.14 -1772.28,601.03 1043.67,1054.27 1326.12,1818.3 2044.8,3053.13 361.84,-246.2 800.36,-378.04 1232.57,-424.29 326.29,-34.68 379,461.42 52.74,496.1 -352.8,37.75 -717.45,141.5 -1012.25,344.76 366.54,512.74 786.09,986.85 1190.69,1469.53 210.41,251.46 -172.42,571.78 -382.82,320.32 -477.57,-569.81 -1110.07,-1258.31 -1495.72,-1924.69 -902.24,-1559.03 -1117.63,-2219.56 -2515.82,-3490.74 -632.77,-575.3 -1301.83,-878.05 -1975.42,-1182.83 -1233.6,-558.21 -6124.77,-3850.93 -6087.81,-674.46 17.78,1529.87 2595.55,3572.66 4076.07,4076.3 215.72,73.08 226.27,371.34 22.97,463.57 533.26,891.71 1246.47,1608.46 1925.71,2290.98 175.81,176.66 349.41,351.11 515.35,523.7 205.17,213.3 -85.95,628.14 -405.82,297.55 150.74,957.27 129.31,2019.17 187.26,2998.5 179.02,3024.36 852.71,7013.76 5408.18,9660.52 283.52,164.2 33.54,595.85 -250,431.64 -2843.21,-1651.93 -4239.97,-3789.57 -4943.93,-5910.31zm-14680.12 -22158.61c-155.42,-289.05 284.06,-525.33 439.46,-236.32 10.14,18.79 19.78,37.83 29,57.09 754.74,-1443.24 2301.42,-3979.35 2095.65,-5653.69 -105.03,-854.75 -1065.81,-1745.4 -1874.99,-1281.14 155.6,1306.17 -486.76,2545.03 -1582.37,3190.33 -287.38,169.25 -509.02,223.65 -789.2,421.91 -2677.62,1894.49 -5902.16,10997.9 -6156.41,14427.79 -510.32,6884.23 -5586.35,10927.35 -6759.32,16292.29 -1025.53,4691.02 8735.03,6754.68 10510.89,4845.49 2707.35,-2910.62 2145.32,-5128.92 6716.92,-7719.01 575.49,-326.06 1186.18,-672.07 1874.2,-1165.4 -949.29,-167.35 -3120.62,-96.28 -3772.82,-390.31 -1940.94,-875 -1957.95,-3663.48 132,-3907.03l0 -349.71c-1271.88,48.12 -2933.07,-742.83 -2970.94,-2187.42 -33,-1258.45 1317.37,-2467.05 2970.94,-2469.68l0 -1275.29c-1550.77,-498.83 -1923.98,-2664.39 -518.81,-3487.4 -537.69,-451.1 -610.63,-1357.17 -688.84,-2330.31 -81.37,-1012.42 -169.53,-2107.81 -835,-2668.33 -44.4,39.38 -87.47,74.85 -128.79,105.9 -262.05,196.53 -560.86,-201.92 -298.82,-398.44 767.48,-576.71 2140.59,-2833.09 1607.25,-3821.32zm227.39 2086.16c214.32,-148.85 403.67,-307.69 635.62,-686.85l0 -1255.34c-140.34,270.62 -234.12,472.12 -252.15,574.49 -33.98,466.96 -191.44,941.75 -383.47,1367.7zm635.62 127.8c-151.25,148.73 -299.11,248.43 -463.24,359.06 -550.11,370.79 -812.46,697.91 -1231,1182.37 799.87,690.7 895.9,1883.71 984.63,2987.74 77.75,967.45 149.26,1856.13 709.61,2097.26l0 -6626.43zm1200.02 -9675.71c168.8,-74.52 365.36,-89.65 549.98,-89.65l12398.75 0c963.01,0 1750,786.99 1750,1750l0 2835.08c4287.9,199.53 4496.46,4851.35 96.32,4851.35 -32.15,0 -64.26,-0.34 -96.32,-1.03l0 1062.53c2233.63,533.45 4308.37,3423.55 2468.56,5450.67l11.27 12.49c1207.27,1338.4 3087.49,2339.86 3949.91,3448.68 1889.51,2429.36 2141.02,5737.55 2374.52,8809.04 319.53,4203.54 1165.13,7818.61 3819.44,11233.39 1099.4,1414.35 1179.21,2559.44 617.88,3528.73 -1311.9,2265.3 -8538.3,5329.68 -9693.11,2146.8 -659.24,-1821.22 -1972.68,-3476 -3468.4,-4690.98 -2247.56,-1825.64 -3086.22,-2351.76 -4190.21,-5524.33 -455.83,-1309.88 -1136.13,-3053.22 -2564.11,-3441.96 -1402.67,-381.77 -3228.66,-146.21 -4943.25,-593.35 -855.35,651.93 -1586.17,1066.03 -2268.53,1452.63 -4438.09,2514.42 -3951.97,4780.84 -6597.78,7625.25 -2148.19,2309.44 -12356.75,-143.49 -11397.48,-5125.45 1023.88,-5317.18 6279.44,-9599.54 6782.63,-16387.33 266.51,-3595.58 3543.34,-12800.79 6367.35,-14798.89 1207.58,-854.45 1175.52,-2806.07 2309.25,-3574.26 584.25,-395.92 1162.58,-286.15 1723.33,20.59zm528.3 410.52c282.35,312.9 431.09,699.87 479.76,1134.42l12744.01 0 0 14172.96c149.4,96.17 298.32,201.51 446.66,318.99l0 -14376.54c0,-687 -563,-1250 -1250,-1250l-12420.43 0.17zm497.78 1434.42c13.17,1109.44 -510.04,2390.06 -979.43,3376.35l0 20242.01 11858.11 0c-53.97,-924.72 -6.42,-3337.54 -526.72,-3871.38 -691.84,-706.72 -1381.7,-1475.12 -1873.57,-2459.91 -1565.97,-759.3 -3901.02,-2603.63 -3921.21,-4340.2 -45.88,-3944.82 5295.72,-461.1 6790.93,215.48 360.93,163.31 720.61,326.09 1077.88,529.25l0 -13691.6 -12425.99 0zm-1279.43 3983.3c-152.26,298 -304.11,582.51 -446.67,846.57l0 21195.55c0,687 563,1250 1250,1250l11913.52 0c-330.02,-1164.05 -468.24,-2311.01 -539.85,-3357.06l-12177 0 0 -19935.06zm-2819.71 -2566.84c930.42,-561.08 1475.58,-1607.07 1418.04,-2691.98 -559.14,570.84 -866.7,1904.47 -1418.04,2691.98zm17771.79 5584.28c31.86,0.73 63.98,1.1 96.32,1.1 3756.89,0 3501.8,-3671.67 -96.32,-3852.81l0 3851.71zm602.6 4758.31c-190.4,50.1 -266.53,-239.38 -76.18,-289.46 1791.78,-476.7 2207.21,1764.32 570.6,2393.24 -183.45,70.13 -290.05,-208.78 -106.64,-278.9 1275.61,-490.21 1048.29,-2206.97 -387.78,-1824.88zm-602.6 -2680.52l0 5379.46c699.05,32.14 1444.66,-141.9 1961.47,-637.58 1761.83,-1689.8 -63.24,-4208.27 -1961.47,-4741.88zm-8127.97 4040.78c-110.08,-163.2 138.37,-330.76 248.44,-167.58 695.32,1029.02 2586.33,1290.28 2992.92,78.84 62.43,-186.52 346.03,-91.6 283.6,94.92 -490.22,1460.66 -2692.41,1225.93 -3524.96,-6.18zm-7770.78 10530.18l0 -3658.99c-1235.22,9.82 -2444.89,947.29 -2447.64,1945.02 -3.21,1159.42 1457.58,1768 2447.64,1713.97zm6696.9 926.81c789.01,0 1579.3,-4.58 2368.73,-4.58 1147.36,0 1147.36,1744.1 0,1744.1 -789.01,0 -1579.3,4.58 -2368.73,4.58 -1147.36,0 -1147.36,-1744.1 0,-1744.1zm2232.5 300l-2168.48 0c-699.78,89.38 -637.17,1139.52 72.21,1139.52l2168.48 0c699.78,-89.38 637.17,-1139.52 -72.21,-1139.52zm-8929.4 -7265.51l0 -2521.8c-1057.78,474.83 -958.24,1980.83 0,2521.8zm7010.1 -18293.59c-197.31,0 -197.31,-300 0,-300l1878.55 0c197.31,0 197.31,300 0,300l-1878.55 0z"/></g><text x="0" y="50015" fill="#000000" font-size="5px" font-weight="bold" font-family="'Helvetica Neue', Helvetica, Arial-Unicode, Arial, Sans-serif">Created by Oleksandr Panasovskyi</text><text x="0" y="50020" fill="#000000" font-size="5px" font-weight="bold" font-family="'Helvetica Neue', Helvetica, Arial-Unicode, Arial, Sans-serif">from the Noun Project</text></svg>