<?xml version="1.0" encoding="utf-8"?>
<!-- Generator: Adobe Illustrator 19.1.0, SVG Export Plug-In . SVG Version: 6.00 Build 0)  -->
<svg version="1.1" id="Layer_1" xmlns="http://www.w3.org/2000/svg" xmlns:xlink="http://www.w3.org/1999/xlink" x="0px" y="0px"
	 viewBox="-254 333.7 167 126.3" style="enable-background:new -254 333.7 167 126.3;" xml:space="preserve">
<title>ecology, windmill, power, energy, environment, green, leaves</title>
<path d="M-225.2,420.3c0.4,0.1,0.7,0.1,1.1,0.1c1.4-0.1,2.7-0.5,3.8-1.3c0.8-0.5,1-1.5,0.6-2.3c-0.5-1.1-1.7-3-3.7-3.6
	c-2-0.5-4,0.5-5,1.2c-0.8,0.5-1,1.5-0.6,2.3C-228.4,417.9-227.2,419.8-225.2,420.3z M-224,415.6c0.8,0.3,1.4,0.9,1.8,1.7
	c-0.7,0.5-1.6,0.7-2.4,0.6c-0.8-0.3-1.4-1-1.8-1.7C-225.7,415.7-224.8,415.5-224,415.6z"/>
<path d="M-127.9,416.9c-0.9,0-1.7,0.7-1.8,1.7c-0.1,1.2-0.1,3.5,1.3,4.9c1.2,1.1,2.8,1.7,4.4,1.6c0.2,0,0.3,0,0.4,0
	c0.9,0,1.7-0.7,1.8-1.7c0.1-1.2,0.1-3.5-1.3-4.9l0,0C-124.5,417-126.7,416.9-127.9,416.9z M-126.6,421.8c-0.5-0.7-0.7-1.6-0.6-2.4
	c1.4-0.3,2.8,0.7,3,2.1c0.1,0.4,0.1,0.7,0,1.1C-125.1,422.6-126,422.3-126.6,421.8L-126.6,421.8z"/>
<path d="M-153,342.3c-1-0.1-1.9,0.5-2.2,1.4c-0.4,1.4-0.9,4,0.4,6c1.3,2,3.9,2.7,5.3,2.9c0.1,0,0.2,0,0.3,0c0.9,0,1.7-0.6,1.9-1.4
	c0.4-1.4,0.9-4-0.4-6C-149,343.2-151.6,342.5-153,342.3z M-149.6,350.1c-1.2-0.1-2.4-0.7-3.2-1.7c-0.5-1.1-0.6-2.4-0.2-3.6
	c1.2,0.1,2.4,0.7,3.2,1.7C-149.2,347.7-149.2,348.9-149.6,350.1z"/>
<path d="M-228.6,344.9c0.3,0,0.7,0.1,1,0.1c1.4,0.1,2.9-0.4,4-1.3c1.5-1.4,1.6-3.6,1.5-4.9c0-0.9-0.8-1.7-1.7-1.8
	c-1.2-0.1-3.5-0.1-4.9,1.3c-1.5,1.4-1.6,3.6-1.5,4.9C-230.2,344.1-229.5,344.8-228.6,344.9z M-227,340.1c0.7-0.5,1.5-0.7,2.4-0.6
	c0,0.9-0.2,1.7-0.8,2.4l0,0c-0.7,0.5-1.5,0.7-2.4,0.6C-227.8,341.6-227.5,340.8-227,340.1z"/>
<path d="M-113.6,392.2c-0.2-0.2-6.1-4.4-9.9-5c-4.1-0.6-15.8-0.3-19-0.2c-0.6-1-1.7-1.7-2.9-1.9c-1.2-2.9-5.7-13.8-8-17.2
	c-2.1-3.2-8.4-6.8-8.7-7c-0.1-0.1-0.2-0.1-0.3-0.1c-1.2-0.3-2.4,0.4-2.8,1.6c-0.1,0.5-0.1,1.1,0.1,1.5c0.1,0.1,5.8,12.2,7.5,15.8
	c1.4,2.9,3.5,5.5,6,7.5l1.4,0.9c-0.2,0.7-0.2,1.5,0,2.3c-2,2.4-9.5,11.6-11.5,15.2c-1.9,3.4-2.1,10.6-2.1,10.9c0,0.1,0,0.2,0,0.3
	c0.2,0.9,0.9,1.5,1.7,1.7c0.2,0,0.3,0,0.5,0c0.7,0,1.4-0.3,1.8-0.9c0.1-0.1,8-10.9,10.3-14.1l0,0l-1.2,35.3c-6,1.4-11.7,4-16.7,7.7
	c-0.6,0.4-0.7,1.2-0.3,1.7c0.4,0.6,1.2,0.7,1.7,0.3l0,0c10.1-7.2,19.9-9.4,29.3-6.8c4.9,1.4,9.2,4.4,13.7,7.6c1.9,1.4,3.9,2.7,6,4.1
	c0.4,0.2,0.5,0.7,0.4,1.1s-0.5,0.7-0.9,0.7h-41.4c-3.5-1.3-6.6-4.1-9.9-7.1c-5.5-5-11.7-10.6-21.6-11.6l-1.9-54.9
	c4.1,2.8,14.3,9.8,18.5,11.6c2.8,1.2,7.5,1.5,10.5,1.5c1.6,0,2.7-0.1,2.8-0.1s0.2,0,0.3-0.1c1.3-0.4,2-1.8,1.6-3.1
	c-0.2-0.6-0.6-1-1-1.3c-0.1-0.1-14-8.6-18-11.1c-2.8-1.7-7.6-3.6-10.9-3.7l-2.2-0.1c-0.3-1-0.8-1.8-1.6-2.5c0.4-3.5,2.1-18,1.7-23.2
	c-0.3-4.6-4.9-12.1-5-12.4c-0.1-0.1-0.1-0.2-0.2-0.3c-1-0.9-2.6-0.9-3.5,0.1c-0.4,0.4-0.6,1-0.7,1.6c0,0.2-1,16.4-1.3,21.1
	c-0.2,3.3,0.4,8.4,1.9,11.3l0.9,1.7c-0.7,0.6-1.3,1.5-1.5,2.4l-2.2,0.1c-3.3,0.1-8.1,1.9-10.9,3.7c-4,2.5-17.9,11-18,11.1
	c-1.2,0.7-1.5,2.2-0.8,3.4c0.3,0.5,0.8,0.9,1.3,1c0.1,0,0.2,0.1,0.3,0.1s1.2,0.1,2.8,0.1c3,0,7.7-0.2,10.5-1.5
	c4.2-1.9,14.4-8.8,18.5-11.6l-1.9,55.4c-9.2,1.8-16.7,7-23,11.3c-1.6,1.1-3.1,2.1-4.5,3.1c-1.3,0.8-1.9,2.4-1.5,3.9s1.8,2.5,3.3,2.5
	h108.7c1.9,0,3.5-1.5,3.5-3.5c0-1.2-0.6-2.3-1.6-2.9c-2-1.3-4-2.7-5.8-4c-4.7-3.3-9.2-6.5-14.5-8c-2-0.6-4-0.9-6-1.1l-1.6-45.8
	l1.3,0.8c2.9,1.5,6.1,2.3,9.3,2.4c3.9,0.1,17.3,0.4,17.5,0.4l0,0c1.2,0,2.3-1,2.3-2.3c0-0.5-0.2-1-0.5-1.4
	C-113.4,392.3-113.5,392.2-113.6,392.2z M-147.5,388.3c0.5-0.8,1.5-1,2.3-0.5s1,1.5,0.5,2.3l0,0c-0.5,0.8-1.5,1-2.3,0.5
	C-147.7,390.2-148,389.1-147.5,388.3L-147.5,388.3z M-155.2,378.6c-1.4-3-5.8-12.2-7.1-15c2.1,1.3,5.6,3.7,6.8,5.6
	c2,3.1,6.1,12.8,7.5,16.3c-0.3,0.1-0.5,0.3-0.7,0.5l-1.3-0.9C-152.2,383.3-153.9,381.1-155.2,378.6L-155.2,378.6z M-151.2,402.1
	c-2,2.7-8,10.9-9.8,13.4c0.1-2.4,0.6-6.7,1.7-8.7c1.8-3.2,8.3-11.3,10.8-14.3c0.1,0.1,0.2,0.2,0.3,0.2c0.2,0.1,0.4,0.2,0.5,0.3
	l-0.2,1.5C-148.5,397.2-149.6,399.8-151.2,402.1L-151.2,402.1z M-147.9,438.5l1.4-39.8c0.4-0.9,0.7-1.9,0.9-2.8l1.5,42.4
	C-145.4,438.2-146.7,438.3-147.9,438.5L-147.9,438.5z M-190.6,377.8h2.1c2.7,0.1,7.2,1.7,9.6,3.3c3.9,2.4,16.8,10.4,18,11
	c-1.7,0.1-8.5,0.2-11.7-1.2c-4.2-1.8-15-9.3-18.6-11.8C-190.9,378.7-190.7,378.3-190.6,377.8z M-217.8,390.9
	c-3.2,1.4-9.8,1.3-11.7,1.2c1.5-0.9,14.1-8.6,17.9-11c2.5-1.5,6.9-3.2,9.6-3.3h2.2c0.1,0.5,0.3,0.9,0.6,1.3
	C-202.8,381.6-213.7,389.1-217.8,390.9z M-192.6,436.3c-0.3,0-0.7,0-1,0c-1.4,0-2.8,0.1-4.1,0.3l1.9-55.3c0.2,0,0.4,0.1,0.7,0.1
	c0.2,0,0.4,0,0.7,0L-192.6,436.3z M-194,378.5c-1.1,0.7-2.5,0.3-3.2-0.8c-0.7-1.1-0.3-2.5,0.8-3.2s2.5-0.3,3.2,0.8
	c0.2,0.4,0.3,0.8,0.3,1.2C-192.9,377.3-193.3,378.1-194,378.5z M-198.6,360c0.3-4.6,1.2-19.7,1.2-21c1.3,2.3,4.3,7.7,4.5,10.9
	c0.3,4.5-1.1,17.5-1.6,21.9c-0.2,0-0.4-0.1-0.7-0.1s-0.6,0-0.9,0.1l-0.9-1.8C-198.2,367.6-198.8,362.9-198.6,360z M-226,455.3
	c-0.4,0-0.8-0.3-0.9-0.7c-0.1-0.4,0-0.9,0.4-1.1c1.5-1,3-2,4.6-3.1c7.8-5.4,16.7-11.6,28.2-11.6c11.1,0,17.7,6,23.5,11.2
	c2,1.9,4.1,3.6,6.3,5.2L-226,455.3z M-132.6,393.2c-2.8-0.1-5.5-0.8-8-2l-1.4-0.8c0.1-0.3,0.1-0.6,0.1-0.9
	c3.8-0.1,14.3-0.4,17.9,0.2c2.3,0.4,5.9,2.6,7.9,3.9C-119.1,393.5-129.2,393.2-132.6,393.2z"/>
<path d="M-213.9,356.2c0.5-0.4,0.6-1.2,0.2-1.8c-0.4-0.5-1.2-0.6-1.8-0.2l0,0c-3.2,2.6-5.6,6-7.1,9.8c-0.2,0.6,0.1,1.4,0.7,1.6
	c0.6,0.2,1.4-0.1,1.6-0.7l0,0C-219,361.6-216.8,358.6-213.9,356.2z"/>
<path d="M-217.5,368.3c0.1,0,0.3,0.1,0.4,0.1c0.5,0,1-0.4,1.2-0.9c1-3.1,2.8-5.7,5.4-7.7c0.5-0.4,0.6-1.2,0.2-1.8
	c-0.4-0.5-1.2-0.6-1.7-0.2c-2.9,2.3-5.1,5.4-6.2,8.9C-218.5,367.4-218.2,368.1-217.5,368.3z"/>
<path d="M-128,372.7c0.7,0,1.3-0.6,1.2-1.3c0-0.2,0-0.3-0.1-0.4c-1.1-2.8-2.8-5.3-5.2-7.1c-0.5-0.4-1.3-0.4-1.8,0.2
	c-0.4,0.5-0.4,1.3,0.2,1.8c2,1.6,3.5,3.7,4.4,6.1C-129,372.4-128.5,372.7-128,372.7z"/>
<path d="M-135.4,367.4c-0.6-0.4-1.3-0.3-1.8,0.2c-0.4,0.5-0.3,1.3,0.2,1.7c1.7,1.4,3,3.2,3.7,5.3c0.2,0.5,0.6,0.9,1.2,0.9
	c0.1,0,0.3,0,0.4-0.1c0.7-0.2,1-0.9,0.8-1.6C-131.7,371.4-133.3,369.1-135.4,367.4z"/>
<path d="M-133.2,403.7c-0.7,2.1-2,4-3.7,5.3c-0.5,0.4-0.6,1.2-0.2,1.8c0.4,0.5,1.2,0.6,1.8,0.2c2.1-1.7,3.7-3.9,4.6-6.5
	c0.2-0.7-0.2-1.4-0.8-1.6S-133,403.1-133.2,403.7L-133.2,403.7z"/>
</svg>
