<svg xmlns="http://www.w3.org/2000/svg" data-name="Layer 3" viewBox="0 0 128 160" x="0px" y="0px"><title>ecology, windmill, power, energy, environment, green, leaves</title><path d="M11.255,88.832a4.225,4.225,0,0,0,1.126.148,7.217,7.217,0,0,0,3.83-1.347,1.861,1.861,0,0,0,.644-2.349c-.518-1.1-1.682-3.017-3.654-3.557s-3.951.52-4.956,1.2A1.858,1.858,0,0,0,7.6,85.275C8.12,86.372,9.284,88.292,11.255,88.832Zm1.286-4.694a3.56,3.56,0,0,1,1.793,1.718,3.546,3.546,0,0,1-2.418.565A3.556,3.556,0,0,1,10.123,84.7,3.565,3.565,0,0,1,12.541,84.138Z"/><path d="M108.568,85.407a1.86,1.86,0,0,0-1.777,1.667c-.131,1.206-.143,3.452,1.256,4.943a6.065,6.065,0,0,0,4.425,1.577c.152,0,.3,0,.426-.009a1.859,1.859,0,0,0,1.777-1.667c.132-1.206.143-3.451-1.256-4.942h0C112.021,85.485,109.783,85.357,108.568,85.407Zm1.3,4.9a3.565,3.565,0,0,1-.631-2.4,2.605,2.605,0,0,1,2.988,3.184A3.561,3.561,0,0,1,109.87,90.306Z"/><path d="M83.51,10.841A2,2,0,0,0,81.3,12.26c-.416,1.387-.918,4.015.384,6.04s3.9,2.66,5.335,2.859a2.083,2.083,0,0,0,.283.02,2,2,0,0,0,1.925-1.44c.415-1.386.916-4.015-.385-6.039S84.945,11.04,83.51,10.841Zm3.436,7.773a4.9,4.9,0,0,1-3.156-1.665,4.893,4.893,0,0,1-.2-3.563,4.9,4.9,0,0,1,3.156,1.665A4.893,4.893,0,0,1,86.946,18.614Z"/><path d="M7.922,13.419a9.534,9.534,0,0,0,.981.052,5.716,5.716,0,0,0,3.956-1.329c1.484-1.4,1.607-3.647,1.548-4.861a1.86,1.86,0,0,0-1.675-1.767c-1.2-.127-3.452-.128-4.936,1.277s-1.607,3.647-1.548,4.86A1.86,1.86,0,0,0,7.922,13.419ZM9.514,8.607a3.533,3.533,0,0,1,2.4-.641,3.56,3.56,0,0,1-.772,2.359h0a3.545,3.545,0,0,1-2.4.641A3.563,3.563,0,0,1,9.514,8.607Z"/><path d="M122.89,60.659c-.247-.181-6.1-4.433-9.926-5.03-4.1-.642-15.806-.295-18.99-.186a4.1,4.1,0,0,0-2.877-1.86c-1.206-2.947-5.694-13.766-7.96-17.243-2.115-3.244-8.394-6.837-8.66-6.988a1.261,1.261,0,0,0-.3-.123,2.26,2.26,0,0,0-2.612,3.156c.059.122,5.848,12.207,7.517,15.761a21.486,21.486,0,0,0,6,7.5l1.373.934a4.183,4.183,0,0,0,0,2.266c-1.955,2.365-9.487,11.558-11.5,15.229-1.861,3.4-2.063,10.627-2.071,10.933a1.262,1.262,0,0,0,.034.324,2.242,2.242,0,0,0,1.745,1.685,2.35,2.35,0,0,0,.462.046,2.245,2.245,0,0,0,1.809-.919c.079-.109,8-10.918,10.343-14.068l.012-.017-1.226,35.322a44.11,44.11,0,0,0-16.7,7.669,1.25,1.25,0,1,0,1.451,2.036c10.056-7.166,19.931-9.448,29.348-6.786,4.888,1.382,9.168,4.412,13.7,7.62,1.907,1.351,3.88,2.747,5.958,4.062a.917.917,0,0,1,.4,1.064.937.937,0,0,1-.928.7H77.9c-3.467-1.275-6.592-4.1-9.9-7.092C62.5,111.666,56.32,106.09,46.372,105.009l-1.9-54.934c4.087,2.828,14.264,9.761,18.464,11.631,2.776,1.237,7.477,1.458,10.482,1.458,1.57,0,2.677-.06,2.8-.067a1.293,1.293,0,0,0,.32-.061,2.474,2.474,0,0,0,.526-4.453c-.139-.085-13.983-8.573-18.02-11.091-2.786-1.738-7.627-3.578-10.9-3.651l-2.2-.051a4.8,4.8,0,0,0-1.573-2.457c.407-3.45,2.067-18.05,1.7-23.152-.336-4.617-4.856-12.054-5.048-12.368a1.284,1.284,0,0,0-.205-.253A2.474,2.474,0,0,0,36.638,7.2c-.009.163-.954,16.373-1.267,21.121-.217,3.276.447,8.412,1.929,11.333l.875,1.735a4.8,4.8,0,0,0-1.507,2.4l-2.2.051c-3.277.073-8.117,1.913-10.9,3.651C19.527,50.01,5.684,58.5,5.537,58.588a2.474,2.474,0,0,0,.534,4.448,1.293,1.293,0,0,0,.32.061c.127.007,1.233.067,2.8.067,3,0,7.706-.221,10.482-1.458,4.2-1.87,14.376-8.8,18.463-11.63l-1.914,55.38c-9.21,1.8-16.735,7-23.011,11.348-1.587,1.1-3.085,2.134-4.536,3.069a3.448,3.448,0,0,0-1.454,3.9,3.39,3.39,0,0,0,3.319,2.478H119.28a3.461,3.461,0,0,0,1.866-6.377c-2.023-1.281-3.969-2.658-5.85-3.99-4.713-3.336-9.163-6.487-14.465-7.986a31.035,31.035,0,0,0-5.991-1.074L93.256,60.982l1.3.8a21.491,21.491,0,0,0,9.3,2.389c3.926.064,17.322.385,17.466.389h.039a2.259,2.259,0,0,0,1.757-3.677A1.222,1.222,0,0,0,122.89,60.659ZM89.042,56.8a1.692,1.692,0,1,1,2.841,1.838A1.692,1.692,0,1,1,89.042,56.8Zm-7.7-9.717c-1.425-3.032-5.834-12.246-7.148-14.991,2.063,1.271,5.592,3.687,6.847,5.614,2.007,3.078,6.09,12.818,7.524,16.3a4.081,4.081,0,0,0-.748.49l-1.339-.911A19.226,19.226,0,0,1,81.343,47.083Zm3.921,23.5c-2,2.688-8.041,10.926-9.839,13.38.145-2.419.609-6.67,1.714-8.687C78.89,72.084,85.461,63.985,87.9,61.013c.095.074.179.159.283.226a4.137,4.137,0,0,0,.537.294l-.157,1.457A19.254,19.254,0,0,1,85.264,70.586Zm3.306,36.386,1.382-39.8a17.927,17.927,0,0,0,.919-2.834l1.465,42.4A31.227,31.227,0,0,0,88.57,106.972ZM45.949,46.291l2.138.049c2.722.061,7.18,1.741,9.636,3.273,3.885,2.423,16.815,10.353,17.955,11.006-1.719.066-8.515.234-11.727-1.2C59.793,57.57,48.91,50.111,45.34,47.635A4.734,4.734,0,0,0,45.949,46.291ZM18.66,59.423C15.491,60.835,8.828,60.691,7,60.622c1.527-.937,14.069-8.629,17.885-11.009,2.456-1.532,6.914-3.212,9.637-3.273l2.158-.05a4.776,4.776,0,0,0,.591,1.343C33.708,50.106,22.819,57.57,18.66,59.423ZM43.865,104.84c-.331-.01-.652-.032-.99-.032a34.276,34.276,0,0,0-4.135.26l1.912-55.3a4.69,4.69,0,0,0,.653.066,4.91,4.91,0,0,0,.654-.044ZM42.5,47a2.315,2.315,0,1,1,1.12-1.983A2.31,2.31,0,0,1,42.5,47ZM37.865,28.485c.3-4.573,1.187-19.739,1.223-21.027,1.343,2.261,4.253,7.743,4.484,10.905.328,4.511-1.09,17.5-1.6,21.906a4.665,4.665,0,0,0-.672-.068,4.783,4.783,0,0,0-.884.089l-.89-1.766C38.3,36.1,37.675,31.373,37.865,28.485ZM10.544,123.75a.924.924,0,0,1-.921-.684.937.937,0,0,1,.411-1.091c1.485-.957,3-2,4.6-3.115,7.826-5.415,16.7-11.552,28.238-11.552,11.1,0,17.661,5.951,23.455,11.2a62.949,62.949,0,0,0,6.294,5.239ZM103.9,61.672a19.243,19.243,0,0,1-8.035-2.019l-1.376-.845a4.135,4.135,0,0,0,.141-.885c3.762-.119,14.315-.391,17.945.176,2.268.354,5.92,2.58,7.927,3.941C117.449,61.967,107.251,61.727,103.9,61.672Z"/><path d="M22.568,24.749a1.25,1.25,0,1,0-1.578-1.94,23.323,23.323,0,0,0-7.084,9.8,1.25,1.25,0,1,0,2.337.888A20.81,20.81,0,0,1,22.568,24.749Z"/><path d="M18.981,36.842a1.267,1.267,0,0,0,.381.06,1.251,1.251,0,0,0,1.191-.87,15.8,15.8,0,0,1,5.381-7.694A1.25,1.25,0,0,0,24.4,26.365a18.289,18.289,0,0,0-6.228,8.906A1.25,1.25,0,0,0,18.981,36.842Z"/><path d="M108.5,41.236a1.251,1.251,0,0,0,1.168-1.694,16.985,16.985,0,0,0-5.159-7.137,1.25,1.25,0,0,0-1.577,1.94,14.489,14.489,0,0,1,4.4,6.084A1.252,1.252,0,0,0,108.5,41.236Z"/><path d="M101.073,35.932a1.25,1.25,0,0,0-1.535,1.973,10.9,10.9,0,0,1,3.714,5.31,1.252,1.252,0,0,0,1.191.87,1.267,1.267,0,0,0,.381-.06,1.25,1.25,0,0,0,.81-1.571A13.4,13.4,0,0,0,101.073,35.932Z"/><path d="M103.252,72.223a10.9,10.9,0,0,1-3.714,5.309,1.25,1.25,0,0,0,1.535,1.974,13.4,13.4,0,0,0,4.561-6.523,1.25,1.25,0,1,0-2.382-.76Z"/></svg>