<svg xmlns="http://www.w3.org/2000/svg" xmlns:xlink="http://www.w3.org/1999/xlink" xml:space="preserve" version="1.1" style="shape-rendering:geometricPrecision;text-rendering:geometricPrecision;image-rendering:optimizeQuality;" viewBox="0 0 60000 75000" x="0px" y="0px" fill-rule="evenodd" clip-rule="evenodd"><defs><style type="text/css">
   
    .fil0 {fill:black;fill-rule:nonzero}
   
  </style></defs><g><path class="fil0" d="M13932 21190l-10398 -15602c-121,-183 -72,-429 110,-551l0 0 48 -32 -85 -208c-253,-620 -281,-1149 -111,-1619 168,-466 519,-847 1027,-1179l2 -1c493,-345 973,-525 1462,-503 500,22 979,252 1454,725l155 155 21 -14c183,-123 431,-75 555,108l12558 18591c1158,379 2284,970 3334,1781 1747,1349 3310,4029 4155,6839 789,2625 958,5385 76,7320l-1 1 6055 10906c3,5 6,11 9,16l3 5 402 724c26,47 42,98 48,148l923 5934c6,9 11,18 16,28 10,19 19,39 26,60l1 0 987 2906c71,209 -41,436 -250,506 -171,58 -354,-7 -453,-146l-1860 -2425c-15,-20 -28,-41 -39,-62l-4008 -3559c-36,-23 -69,-52 -97,-86l-476 -422c-38,-31 -70,-69 -95,-114l-5793 -10434c-2026,684 -3759,864 -5218,726 -1950,-184 -3407,-931 -4422,-1801 -1041,-893 -1559,-2067 -1768,-3256 -67,-381 -102,-764 -113,-1139 -429,-143 -841,-341 -1229,-595 -457,-299 -881,-677 -1255,-1132 -326,-396 -589,-828 -794,-1286 -727,-1625 -718,-3574 -175,-5400 540,-1815 1609,-3519 3009,-4669 485,-398 1009,-731 1566,-980 211,-94 424,-181 639,-261zm26759 36517l0 800 -800 0 0 -800 800 0zm15922 0l-722 0 0 800 722 0 0 -800zm-3122 0l0 800 -800 0 0 -800 800 0zm-3200 0l0 800 -800 0 0 -800 800 0zm-3200 0l0 800 -800 0 0 -800 800 0zm-3200 0l0 800 -800 0 0 -800 800 0zm-39467 -52222l3706 5560 9 9 -1 1c17,17 33,36 47,57 139,203 363,325 613,356 269,34 565,-34 824,-212 257,-176 424,-423 488,-680 60,-243 27,-496 -111,-704 -4,-6 -8,-12 -12,-18l-1954 -2855c-124,-182 -77,-430 105,-555 182,-124 430,-77 555,105l1953 2854c3,4 6,9 10,13 144,207 369,331 617,363 244,31 511,-23 754,-172l-4292 -6354c-15,7 -30,14 -45,20l-3218 2168c-15,16 -32,31 -50,44zm4526 6790l5770 8658c1334,-378 2726,-484 4108,-305 243,31 486,72 728,121l-7079 -10480c-410,260 -873,356 -1302,301 -83,-11 -165,-27 -245,-49 -9,82 -23,164 -43,246 -109,441 -388,858 -813,1149l0 0c-349,239 -743,357 -1123,360zm-4584 -7725l2556 -1722 -43 -43c-326,-325 -630,-481 -926,-494 -299,-13 -619,115 -969,360 -8,6 -16,12 -24,17 -366,239 -611,492 -714,779 -102,282 -76,625 98,1051l22 53zm16017 17234c-18,-4 -36,-10 -53,-16 -529,-164 -1065,-280 -1602,-350 -1738,-225 -3495,39 -5110,761 -490,219 -954,514 -1384,867 -1276,1049 -2254,2611 -2750,4279 -493,1657 -507,3409 138,4850 176,394 402,765 681,1105 319,388 683,712 1077,970 258,169 528,309 808,420 63,-989 271,-1868 469,-2445 158,-458 335,-921 521,-1386 -361,-472 -563,-973 -631,-1478 -79,-588 26,-1174 276,-1722 243,-532 624,-1027 1107,-1448 769,-671 1800,-1158 2940,-1311l12 -1c55,-7 100,-13 135,-17 2190,-241 3995,745 5318,2297 1293,1517 2121,3582 2385,5552l1 12c7,51 13,98 18,142 1036,706 2067,1725 3039,3261 547,-1708 341,-4002 -325,-6218 -801,-2664 -2261,-5188 -3877,-6436 -1007,-777 -2086,-1337 -3194,-1687zm-4460 4147c-300,1144 -826,2387 -1369,3673 -397,940 -805,1903 -1141,2880 -214,620 -439,1623 -446,2718 0,10 0,20 0,30 -1,420 29,853 105,1283 181,1026 620,2033 1500,2787 908,778 2217,1448 3975,1614 1321,124 2898,-35 4751,-644 -652,-1137 -1310,-2008 -1971,-2676 -24,6 -48,10 -73,12 -413,29 -851,35 -1283,0 -375,-30 -750,-91 -1108,-196 -1373,-401 -1761,-1517 -1717,-2781 40,-1152 449,-2410 753,-3294 333,-967 753,-1960 1163,-2930 317,-749 627,-1484 891,-2199 -840,-451 -1795,-669 -2850,-553 -47,5 -85,10 -114,13l-11 2c-367,49 -721,138 -1054,261zm-2103 3363c422,-998 832,-1970 1127,-2875 -175,114 -340,239 -492,372 -399,348 -711,751 -907,1179 -189,413 -269,851 -211,1284 31,228 100,456 211,681 90,-215 180,-429 270,-641zm6820 -2647c-251,664 -545,1360 -845,2069 -286,677 -577,1365 -843,2062 445,142 913,254 1402,371 1094,262 2290,548 3499,1184 -306,-1678 -1037,-3381 -2124,-4656 -331,-388 -694,-735 -1089,-1029zm-1962 4881l-23 68c-289,839 -677,2029 -713,3060 -2,57 -3,113 -3,168 1012,217 2036,626 3055,1412 1033,798 2059,1984 3059,3755l1 2 1 0 6095 10979 258 229c188,-153 324,-344 399,-550 99,-269 92,-560 -40,-812 -3,-6 -6,-12 -9,-18l-1781 -3332c-104,-194 -30,-436 164,-539 194,-104 436,-30 539,164l1781 3332c4,7 8,14 12,22l6 12c138,241 372,403 644,469 291,70 624,32 933,-133 311,-166 532,-426 638,-711 96,-259 95,-538 -25,-780 -9,-14 -17,-29 -24,-44l-6147 -11072 1 0c-2305,-4080 -5051,-4738 -7329,-5283 -527,-126 -1030,-247 -1492,-395zm-613 4143c155,458 467,814 1019,975 296,86 618,138 948,164 142,11 285,18 427,20 -799,-607 -1601,-956 -2395,-1160zm16866 19076l-758 -4870c-187,255 -437,477 -741,639 -488,261 -1023,320 -1496,205 -102,-25 -200,-57 -295,-97 -19,101 -47,202 -84,300 -110,299 -296,578 -548,809l3592 3189 330 -176z"/></g></svg>